<svg width="543" height="158" viewBox="0 0 543 158" fill="none" xmlns="http://www.w3.org/2000/svg">
<path d="M526.671 52.6548C514.093 49.9658 468.962 45.26 461.865 44.9146C402.946 42.0414 239.658 51.4392 238.02 51.5452C237.808 51.5544 216.716 52.572 186.506 52.7561C123.932 53.1383 78.1477 55.3531 58.0906 64.9259C40.841 73.1589 32.681 87.479 28.8748 98.0464C24.7511 109.489 24.7051 119.117 24.7051 119.213H25.1653C25.1653 119.117 25.2159 109.558 29.312 98.1891C33.0906 87.7092 41.1861 73.5042 58.2885 65.3449C68.6162 60.4181 85.8199 57.4482 108.661 55.6754C87.4077 57.4298 70.0153 60.3306 59.7981 65.147C47.16 71.0914 37.8218 80.8807 32.0412 94.243C27.5447 104.64 26.592 114.176 26.3941 117.795C26.3481 118.656 26.3435 119.227 26.3435 119.232L26.8038 119.236C26.8038 119.232 26.8084 118.67 26.8544 117.818C27.1996 111.533 30.4304 79.4717 59.9914 65.566C68.2342 61.6797 81.1853 59.0459 97.0772 57.2548C81.9309 59.0367 69.5505 61.6199 61.501 65.3634C48.7662 71.2572 39.3774 81.0602 33.5968 94.4917C29.174 104.774 28.2351 114.218 28.0372 117.8C27.9912 118.601 27.9866 119.232 27.9866 119.236L28.4468 119.241C28.4468 119.236 28.456 118.615 28.4974 117.823C28.8426 111.542 32.0735 79.5039 61.7035 65.7686C69.9785 61.9192 82.8697 59.3038 98.6604 57.5218C83.6199 59.2946 71.2948 61.8593 63.2176 65.566C50.3725 71.4368 40.9284 81.2536 35.1524 94.7449C30.7986 104.907 29.8735 114.259 29.6802 117.809C29.6388 118.564 29.6296 119.246 29.6296 119.246L30.0898 119.255C30.0898 119.255 30.099 118.583 30.1405 117.837C30.4856 111.561 33.7211 79.5546 63.4109 65.985C74.1759 61.0397 92.5485 58.1389 114.865 56.4306C93.4184 58.1619 75.4231 61.0259 64.9297 65.7824C51.9787 71.6163 42.484 81.447 36.708 95.0028C32.4278 105.05 31.5166 114.31 31.3187 117.827C31.2819 118.523 31.2634 119.259 31.2634 119.259L31.7237 119.269C31.7237 119.269 31.7375 118.541 31.7743 117.85C32.2622 109.037 36.1005 79.2691 65.1138 66.2014C73.4027 62.4441 86.4136 59.8702 102.126 58.1066C87.1545 59.8609 74.7236 62.3796 66.6326 65.9988C53.5803 71.7959 44.0304 81.6404 38.2544 95.2606C34.1998 104.829 33.1918 113.513 32.9525 117.841C32.9157 118.477 32.8973 119.273 32.8973 119.273L33.3575 119.283C33.3575 119.283 33.3759 118.495 33.4081 117.864C33.896 109.06 37.739 79.3243 66.8121 66.4178C77.5448 61.6153 95.9681 58.7605 117.848 57.0522C96.8195 58.7743 78.8012 61.5923 68.3355 66.2106C55.1773 71.9709 45.5768 81.8292 39.8054 95.5139C35.8198 104.962 34.8257 113.564 34.591 117.85C34.5587 118.431 34.5357 119.278 34.5357 119.278L34.996 119.292C34.996 119.292 35.019 118.449 35.0512 117.878C35.5344 109.079 39.3866 79.3842 68.5242 66.6296C76.767 62.992 89.7319 60.478 105.173 58.7328C90.459 60.4641 78.0879 62.923 70.0476 66.4224C40.6062 79.1263 36.7218 109.01 36.234 117.864C36.2064 118.385 36.1788 119.292 36.1788 119.292L36.639 119.306C36.639 119.306 36.6666 118.408 36.6942 117.892C37.1775 109.102 41.0297 79.4487 70.2317 66.846C78.5205 63.2361 91.4531 60.7404 106.811 59.0045C92.1803 60.7266 79.8414 63.1716 71.755 66.6388C42.2447 79.2046 38.3649 109.014 37.877 117.892C37.8494 118.352 37.8218 119.315 37.8218 119.315L38.282 119.329C38.282 119.329 38.3097 118.375 38.3373 117.874C38.8205 109.102 42.6727 79.5223 71.9391 67.067C82.8835 62.3658 101.684 59.557 123.426 57.8718C102.54 59.5709 84.1492 62.3382 73.4671 66.8598C60.0972 72.4682 50.3817 82.2666 44.6011 95.9835C41.72 102.817 39.9159 110.566 39.5247 117.804L39.5201 117.901C39.4971 118.306 39.4649 119.324 39.4649 119.324L39.9251 119.338C39.9251 119.338 39.9573 118.325 39.9803 117.924L39.9849 117.827C40.459 109.083 44.2881 79.6006 73.6512 67.2835C81.4568 63.9774 93.4137 61.6153 107.456 59.9208C92.9351 61.7304 82.3036 64.1063 75.1838 67.0763C61.7587 72.6293 52.0201 82.3863 46.2257 96.0848C42.3367 105.285 41.3886 113.628 41.1677 117.786L41.1585 117.92C41.1401 118.265 41.1033 119.342 41.1033 119.342L41.5635 119.361C41.5635 119.361 41.6004 118.293 41.6188 117.947L41.628 117.814C42.0882 109.097 45.8713 79.7065 75.3587 67.5091C83.0953 64.2813 95.0016 61.7626 111.57 59.9024C95.8714 61.7396 84.4576 64.1892 76.8913 67.3019C63.4063 72.8043 53.6309 82.5337 47.8319 96.223C43.943 105.409 43.0179 113.674 42.8108 117.786L42.8016 117.938C42.7832 118.228 42.7463 119.361 42.7463 119.361L43.2066 119.379C43.2066 119.379 43.248 118.256 43.2618 117.966L43.271 117.809C43.5794 111.621 46.6675 80.1255 77.0662 67.7255C86.8968 63.6827 103.272 60.7542 127.158 58.8526C104.215 60.7726 88.1486 63.6505 78.6033 67.5183C47.7537 79.9275 44.7438 111.584 44.4538 117.804L44.4446 117.961C44.4308 118.191 44.3894 119.379 44.3894 119.379L44.8496 119.398C44.8496 119.398 44.8956 118.214 44.9048 117.984L44.914 117.827C45.204 111.657 48.1909 80.2544 78.7736 67.9465C86.4504 64.8385 98.3705 62.3704 114.718 60.524C99.2265 62.3428 87.8127 64.7372 80.3062 67.7347C49.2265 80.0657 46.35 111.634 46.0877 117.837L46.083 117.975C46.0738 118.15 46.0278 119.393 46.0278 119.393L46.4881 119.411C46.4881 119.411 46.5341 118.173 46.5433 118.002L46.5479 117.86C46.8056 111.708 49.6591 80.3972 80.4765 68.1675C88.2039 65.0825 100.11 62.6329 116.366 60.8003C100.966 62.6053 89.5708 64.9858 82.0137 67.9557C68.2526 73.343 58.3345 83.0724 52.5402 96.8814C48.4211 106.689 47.8135 115.442 47.7261 117.892L47.7215 117.998C47.7169 118.113 47.6617 119.416 47.6617 119.416L48.1219 119.434C48.1219 119.434 48.1725 118.141 48.1817 118.025L48.1863 117.91C48.2738 115.479 48.8767 106.8 52.9636 97.061C58.7119 83.3717 68.5426 73.7252 82.184 68.3885C92.0975 64.4931 108.661 61.6153 132.258 59.7182C109.586 61.6291 93.3493 64.4517 83.7258 68.1767C51.2975 80.6965 49.4658 114.181 49.3645 117.961V118.016C49.3599 118.076 49.3047 119.43 49.3047 119.43L49.7649 119.448C49.7649 119.448 49.8202 118.099 49.8248 118.039V117.97C49.926 114.227 51.744 81.0142 83.8915 68.605C93.2389 64.9904 108.864 62.2231 130.587 60.3214C111.363 62.0665 95.2685 64.6497 85.4333 68.3932C67.7142 75.1388 59.2964 88.2802 55.3522 98.1154C51.0858 108.766 51.003 117.947 51.003 118.03L50.9431 119.439L51.4034 119.457L51.4632 118.039C51.4632 117.947 51.5461 108.853 55.7802 98.2858C59.6876 88.538 68.0317 75.5072 85.5989 68.8214C112.283 58.6592 185.254 57.0798 241.771 57.5495C303.337 58.056 363.959 61.0904 379.078 62.1356C380.684 62.2507 382.244 61.7304 383.478 60.6852C384.785 59.5709 386.801 57.9777 388.977 56.6976C409.094 44.8686 512.813 49.9105 526.054 57.5218L526.671 52.6548ZM371.852 51.7339C373.265 51.7478 374.788 51.5498 376.514 51.0985C376.956 50.9834 377.407 50.8637 377.867 50.7394C379.547 50.2927 381.282 49.8277 383.091 49.4455C386.791 48.6719 390.86 48.0273 395.14 47.4886C391.095 48.1056 387.196 48.8423 383.57 49.7218C381.71 50.173 379.874 50.744 378.259 51.2505C377.854 51.3748 377.458 51.4991 377.076 51.6188C375.437 52.1207 373.965 52.3463 372.584 52.3141C348.583 51.7201 318.299 52.5305 291.582 53.2488C280.086 53.5573 269.546 53.8382 260.682 53.9763C268.373 53.7968 277.481 53.5021 287.325 53.189C313.342 52.3463 345.711 51.3057 371.852 51.7339ZM343.156 51.2873C352.738 51.0479 362.196 50.8361 371.139 50.6933C372.667 50.6703 374.241 50.4815 375.819 50.1362C376.316 50.0257 376.827 49.9105 377.347 49.7954C379.013 49.4225 380.735 49.0357 382.502 48.718C387.224 47.8753 392.213 47.2031 397.289 46.6643C392.342 47.2767 387.519 48.0411 382.994 48.9896C381.176 49.3718 379.432 49.8369 377.748 50.2881C377.287 50.4124 376.836 50.5322 376.395 50.6473C374.71 51.0893 373.228 51.2919 371.857 51.2689C362.859 51.1261 353.12 51.1538 343.156 51.2873ZM291.596 53.7047C318.308 52.9864 348.583 52.176 372.57 52.77C374.001 52.8068 375.52 52.572 377.205 52.0517C377.587 51.9365 377.982 51.8122 378.387 51.6833C379.998 51.1814 381.825 50.6104 383.671 50.1638C388.665 48.9528 394.174 48.0135 399.871 47.2814C394.284 48.0871 388.927 49.1186 384.136 50.4447C382.221 50.9742 380.366 51.6372 378.728 52.2266L377.743 52.5766C376.169 53.1337 374.673 53.3916 373.302 53.3455C351.284 52.618 321.59 53.2442 295.388 53.7968C284.674 54.0224 274.305 54.2388 265.123 54.3539C273.003 54.2066 281.963 53.9625 291.596 53.7047ZM295.411 54.2618C321.603 53.7093 351.289 53.0831 373.297 53.8106C374.729 53.8612 376.28 53.5896 377.909 53.014L378.894 52.6641C380.523 52.0793 382.373 51.4162 384.269 50.8959C389.272 49.5146 394.887 48.4509 400.746 47.6313C395.002 48.5292 389.534 49.6895 384.725 51.1814C382.755 51.7938 380.877 52.5581 379.225 53.2304L378.438 53.5481C376.91 54.1651 375.428 54.4506 374.043 54.3908C353.848 53.5619 325.792 53.981 298.661 54.3908C288.246 54.5473 278.153 54.6993 268.916 54.7683C277.122 54.6486 286.138 54.4598 295.411 54.2618ZM298.661 54.8512C325.787 54.446 353.838 54.027 374.02 54.8512C375.474 54.9157 377.016 54.6164 378.604 53.9763L379.391 53.654C381.038 52.9818 382.902 52.222 384.854 51.6188C390.418 49.8921 396.871 48.6121 403.618 47.6681C396.944 48.6903 390.621 50.0625 385.291 51.9089C383.252 52.6134 381.269 53.5251 379.676 54.2526L379.105 54.5151C377.642 55.1827 376.132 55.4958 374.761 55.4314C356.218 54.5289 328.189 54.7683 301.082 54.9986C291.306 55.0814 281.811 55.1643 272.878 55.1919C281.011 55.1137 289.714 54.9847 298.661 54.8512ZM382.424 48.2667C380.643 48.5844 378.917 48.9712 377.246 49.3488C376.726 49.4639 376.22 49.579 375.718 49.6895C374.167 50.0303 372.625 50.2144 371.125 50.2375C348.523 50.5966 322.616 51.3748 299.765 52.0609C282.175 52.5904 266.278 53.0646 255.09 53.2534C264.359 53.014 277.154 52.5582 291.881 52.0378C315.418 51.2044 344.717 50.1684 370.412 49.6527C371.926 49.6205 373.514 49.4593 375.12 49.1738C375.672 49.0771 376.234 48.9712 376.804 48.8653C378.461 48.5614 380.173 48.2483 381.913 47.9904C386.828 47.2675 391.928 46.6874 397.055 46.2269C392.033 46.7656 387.095 47.4333 382.424 48.2667ZM301.082 55.459C328.185 55.2288 356.209 54.9893 374.738 55.8872C376.192 55.9609 377.771 55.6294 379.299 54.9295L379.869 54.667C381.453 53.9395 383.427 53.037 385.443 52.3371C390.409 50.6196 396.245 49.3073 402.426 48.3128C396.355 49.3902 390.662 50.7946 385.866 52.6318C383.745 53.4422 381.733 54.4736 380.113 55.3071L379.782 55.4774C378.364 56.2003 376.878 56.5457 375.483 56.4674C358.353 55.5097 331.011 55.5603 302.057 55.6156C293.787 55.6294 285.387 55.6478 277.195 55.634C284.849 55.5971 292.866 55.5281 301.082 55.459ZM282.773 51.6649C308.362 50.6242 340.206 49.335 369.694 48.6167C371.199 48.5798 372.791 48.4463 374.429 48.2161C375.023 48.1332 375.621 48.0457 376.229 47.9582C377.886 47.7188 379.602 47.4701 381.328 47.2675C385.94 46.7242 390.726 46.2776 395.582 45.9046C390.929 46.342 386.313 46.8808 381.848 47.5392C380.1 47.7971 378.383 48.1102 376.726 48.4187C376.155 48.5246 375.594 48.6259 375.046 48.7272C373.458 49.0127 371.898 49.1692 370.407 49.2014C344.707 49.7172 315.413 50.7532 291.872 51.5866C274.512 52.199 259.849 52.7147 250.474 52.9035C258.197 52.6594 269.583 52.199 282.773 51.6649ZM246.645 52.5489C252.333 52.3325 261.165 51.9273 271.926 51.4346C296.866 50.2881 334.564 48.5522 368.971 47.5806C370.458 47.5392 372.059 47.4287 373.734 47.2537C374.356 47.1893 374.982 47.1248 375.612 47.0557C377.287 46.8762 379.018 46.692 380.739 46.54C385.194 46.1486 389.778 45.8125 394.408 45.5316C389.939 45.8862 385.535 46.3098 381.273 46.8117C379.543 47.0143 377.821 47.2629 376.16 47.5024C375.552 47.5899 374.954 47.6773 374.365 47.7602C372.745 47.9904 371.166 48.124 369.68 48.1562C340.188 48.8699 308.344 50.1638 282.75 51.2044C267.176 51.8352 254.114 52.3648 246.645 52.5489ZM302.062 56.076C331.006 56.0254 358.344 55.9747 375.46 56.9279C376.942 57.0107 378.507 56.6516 379.994 55.8918L380.325 55.7215C381.931 54.8973 383.933 53.8704 386.032 53.0693C391.661 50.9143 398.537 49.3534 405.813 48.2253C398.596 49.4363 391.845 51.0939 386.442 53.3685C384.214 54.3079 382.079 55.5235 380.523 56.4168L380.463 56.449C379.193 57.1765 377.72 57.5403 376.201 57.508C360.981 57.1719 333.901 56.845 305.237 56.4996C294.04 56.3661 282.608 56.228 271.516 56.0806C281.466 56.1129 291.863 56.0944 302.062 56.076ZM376.192 57.9685C377.789 58.0053 379.349 57.6139 380.693 56.8496L380.753 56.8127C382.387 55.878 384.421 54.7177 386.621 53.7922C392.268 51.4162 399.397 49.7125 406.991 48.4923C399.452 49.7908 392.443 51.5958 387.017 54.0961C384.849 55.0953 382.847 56.3339 381.14 57.4159C379.902 58.2033 378.456 58.5901 376.924 58.5487C361.607 58.0882 329.644 57.4298 295.195 56.8404C298.55 56.8818 301.901 56.9233 305.228 56.9601C333.896 57.31 360.972 57.637 376.192 57.9685ZM380.698 46.0842C378.972 46.2361 377.237 46.4203 375.562 46.5999C374.931 46.6689 374.305 46.7334 373.684 46.7979C372.022 46.9682 370.43 47.0788 368.953 47.1202C334.541 48.0917 296.843 49.8277 271.898 50.9788C258.8 51.582 248.559 52.0517 243.377 52.2082C246.723 52.047 251.855 51.78 258.28 51.4439C282.166 50.2006 326.629 47.8845 368.239 46.5446C369.73 46.4986 371.3 46.4157 373.03 46.296L374.779 46.1763C376.556 46.0519 378.351 45.9276 380.141 45.8217C384.771 45.5454 389.346 45.3106 393.838 45.1126C389.392 45.3797 384.987 45.7066 380.698 46.0842ZM376.91 59.0091C378.526 59.0552 380.067 58.6407 381.384 57.8073C383.077 56.7345 385.065 55.5051 387.206 54.5197C392.112 52.2589 398.325 50.569 405.054 49.312C398.426 50.6565 392.342 52.4476 387.588 54.8328C385.406 55.9287 383.358 57.31 381.816 58.3921C380.629 59.2255 379.151 59.6537 377.651 59.5939C365.285 59.1058 335.111 58.1711 300.589 57.3975C332.944 57.9593 362.399 58.5717 376.91 59.0091ZM380.127 45.3567C378.332 45.4626 376.537 45.5869 374.761 45.7112L373.012 45.8309C371.286 45.9506 369.721 46.0289 368.235 46.075C326.615 47.4149 282.152 49.731 258.266 50.9742C248.702 51.4715 242.006 51.8306 239.81 51.8859C252.26 51.1077 328.015 46.4848 391.674 44.7396C387.873 44.9192 384.016 45.1218 380.127 45.3567ZM377.633 60.0497C379.234 60.1096 380.808 59.6583 382.079 58.7651C383.607 57.6922 385.641 56.3201 387.795 55.2426C393.497 52.3832 401.128 50.3802 409.315 48.9804C401.169 50.4677 393.649 52.5766 388.163 55.5649C386.432 56.5042 384.578 57.7475 382.493 59.3637C381.333 60.2615 379.869 60.7082 378.374 60.6345C367.337 60.0589 339.47 58.9124 306.356 57.9915C338.434 58.7282 365.961 59.5847 377.633 60.0497ZM388.738 56.2878C386.529 57.5863 384.495 59.1979 383.174 60.3214C382.037 61.2884 380.592 61.7718 379.105 61.6659C370.149 61.0443 345.232 59.7274 313.609 58.6546C343.492 59.534 368.138 60.5562 378.355 61.0904C379.957 61.1732 381.531 60.6898 382.778 59.7228C384.845 58.125 386.681 56.8956 388.388 55.9655C394.648 52.5582 403.576 50.3019 413.057 48.8055C403.576 50.3894 394.74 52.7608 388.738 56.2878Z" fill="black"/>
<path d="M1.54743 97.1373L1.0918 97.0774C2.6612 84.5255 7.03805 74.4231 14.0981 67.0513C20.7991 60.057 29.9118 55.5123 41.1784 53.5508C57.5168 50.7051 78.2412 49.6277 102.233 48.3845C122.171 47.3484 144.773 46.1743 167.371 43.7247C189.499 41.3257 201.354 34.4603 215.079 26.5083C229.88 17.9346 246.651 8.21907 280.478 2.468C340.35 -7.70803 418.333 15.7797 475.273 32.9316C498.299 39.8661 518.186 45.8566 531.312 47.8457L531.243 48.3016C518.089 46.3078 498.184 40.3173 475.14 33.3737C418.245 16.2356 340.323 -7.23836 280.552 2.92385C246.807 8.66111 230.073 18.3583 215.309 26.9089C201.539 34.884 189.646 41.7723 167.421 44.1805C144.81 46.6347 122.203 47.8089 102.256 48.8449C78.278 50.0927 57.5674 51.1656 41.2566 54.0066C18.3046 58.0033 4.57579 72.9174 1.54743 97.1373Z" fill="black"/>
<path d="M1.63044 97.1359L1.1748 97.0761C2.75802 84.7083 7.10725 74.7533 14.1028 67.4827C20.8361 60.4838 30.0776 55.9161 41.5697 53.8993C58.0692 51.0123 79.1526 49.898 103.568 48.6041C123.786 47.5358 144.695 46.4308 166.165 44.1607C173.74 43.3733 180.579 42.0196 187.069 40.0166C197.732 36.729 205.869 32.1935 214.485 27.391L215.129 27.0318C216.101 26.4885 217.085 25.9406 218.07 25.3742C231.449 17.703 248.202 9.06953 277.781 3.73287C296.131 0.376162 317.155 -0.144151 340.272 2.19035C369.626 5.19251 399.606 11.1232 424.68 18.8818C427.561 19.7751 430.152 20.7328 432.66 21.6583C433.309 21.8978 433.949 22.1326 434.584 22.3674L434.975 22.5102C436.264 22.9844 437.727 23.5186 439.209 23.9284C448.193 26.4102 457.08 28.9427 465.677 31.3923C490.903 38.58 514.734 45.3671 531.082 48.0101L531.008 48.466C514.633 45.8183 490.793 39.0267 465.553 31.839C456.961 29.3894 448.069 26.8569 439.09 24.375C437.589 23.9606 436.121 23.4219 434.823 22.9476L434.437 22.8049C433.797 22.57 433.157 22.3352 432.508 22.0958C430.009 21.1703 427.423 20.2171 424.551 19.3284C399.505 11.579 369.562 5.65757 340.235 2.65541C317.164 0.325512 296.182 0.845825 277.873 4.19332C248.363 9.52077 231.657 18.1267 218.31 25.7794C217.32 26.3504 216.335 26.8983 215.36 27.4416L214.715 27.8008C206.077 32.6171 197.921 37.1618 187.211 40.4679C180.69 42.4801 173.823 43.8384 166.22 44.6304C144.736 46.9004 123.823 48.0055 103.6 49.0738C79.2033 50.363 58.1336 51.4773 41.6572 54.3598C18.1989 58.467 4.73243 72.8654 1.63044 97.1359Z" fill="black"/>
<path d="M1.70954 97.1375L1.25391 97.0776C4.42033 72.8716 18.117 58.464 41.9618 54.2416C58.65 51.3039 81.1693 50.0975 105.01 48.8129C124.487 47.7676 144.627 46.6856 164.951 44.5997C172.379 43.863 179.135 42.5921 185.615 40.7135C196.822 37.4627 205.557 32.7845 213.257 28.6542C214.256 28.1155 215.324 27.5445 216.387 26.9275C230.553 18.6992 247.471 10.3465 275.081 4.99146C294.535 1.22035 315.218 0.446786 338.303 2.62934C362.249 4.95002 396.523 9.72493 423.852 19.2609C426.862 20.3108 429.241 21.4665 431.543 22.5808C432.063 22.834 432.569 23.0781 433.075 23.3175C434.299 23.8977 435.823 24.6206 437.489 25.0673C442.169 26.3243 446.882 27.5951 451.6 28.8706C480.213 36.6016 509.801 44.5905 530.825 48.159L530.747 48.6149C509.7 45.0463 480.102 37.0483 451.475 29.3172C446.758 28.0418 442.045 26.7709 437.365 25.5139C435.657 25.058 434.111 24.3213 432.873 23.7319C432.366 23.4925 431.856 23.2439 431.336 22.9906C429.044 21.8809 426.678 20.7344 423.691 19.6891C396.417 10.1762 362.18 5.41048 338.262 3.08979C315.218 0.911844 294.581 1.6808 275.173 5.44271C247.628 10.784 230.755 19.1136 216.621 27.3235C215.554 27.9451 214.486 28.5207 213.478 29.0594C205.755 33.1989 197.002 37.8909 185.744 41.1555C179.236 43.0434 172.453 44.3188 164.997 45.0602C144.664 47.146 124.519 48.2281 105.033 49.2779C81.2062 50.558 58.696 51.769 42.0354 54.6975C18.4161 58.8784 4.84835 73.157 1.70954 97.1375Z" fill="black"/>
<path d="M1.79548 97.1365L1.33984 97.0766C4.54309 73.1653 18.3456 58.8682 42.3607 54.5859C59.4815 51.5608 82.8293 50.2761 107.549 48.9178C125.926 47.9094 144.929 46.8641 163.753 45.0361C171.13 44.3178 177.813 43.1299 184.173 41.4032C195.026 38.4562 203.351 34.3997 211.622 30.1497C212.561 29.6662 213.656 29.0998 214.715 28.4736C228.802 20.2039 245.541 11.7914 272.391 6.2475C292.573 2.0804 313.49 1.03977 336.346 3.07037C374.637 6.59284 403.803 12.1643 423.036 19.6421C426.248 20.8899 428.531 22.3404 430.542 23.6204C430.897 23.846 431.242 24.0671 431.587 24.2789C432.673 24.9557 434.128 25.7846 435.794 26.2174C467.536 34.4779 503.628 43.5673 530.598 48.3146L530.519 48.7658C503.531 44.0139 467.435 34.9246 435.679 26.6594C433.957 26.2128 432.457 25.3563 431.343 24.6657C430.998 24.4492 430.653 24.2282 430.298 24.0072C428.306 22.741 426.041 21.3043 422.87 20.0703C403.674 12.611 374.55 7.04869 336.304 3.53082C313.495 1.50483 292.619 2.54545 272.483 6.70335C245.702 12.2334 229.005 20.6275 214.949 28.8788C213.877 29.5096 212.777 30.0806 211.833 30.5641C203.54 34.8279 195.191 38.8983 184.298 41.8544C177.909 43.5903 171.204 44.7829 163.799 45.5012C144.966 47.3292 125.958 48.3744 107.576 49.3828C82.8707 50.7411 59.5367 52.0212 42.4435 55.0418C18.6447 59.2826 4.97111 73.4461 1.79548 97.1365Z" fill="black"/>
<path d="M1.87849 97.1353L1.42285 97.0709C3.04288 85.2602 7.31848 75.738 14.1254 68.7714C20.9691 61.7679 30.6018 57.1081 42.7567 54.9255C60.2088 51.8221 84.2147 50.4868 109.629 49.0732C127.031 48.1062 145.03 47.1024 162.542 45.4724C169.708 44.8047 176.497 43.6674 182.724 42.0973C194.064 39.2333 202.735 35.1997 209.974 31.645C210.968 31.1569 212.027 30.6228 213.035 30.0242C226.377 22.109 243.539 13.2452 269.69 7.50338C290.838 2.86201 311.392 1.59115 334.381 3.50664C360.946 5.82273 398.956 10.0497 422.212 20.0185C425.669 21.5012 427.698 23.2187 429.493 24.7336C429.696 24.9039 429.894 25.0743 430.091 25.2355C430.805 25.8294 432.273 26.8977 434.086 27.3582C465.134 35.2043 502.924 43.4879 530.354 48.4654L530.271 48.9166C502.827 43.9391 465.028 35.6509 433.971 27.8048C432.07 27.3259 430.538 26.2116 429.797 25.59C429.599 25.4242 429.401 25.2585 429.199 25.0835C427.431 23.5916 425.429 21.8972 422.033 20.4421C398.837 10.5009 360.877 6.27397 334.344 3.96249C311.406 2.05161 290.893 3.31786 269.791 7.95002C243.705 13.6781 226.58 22.5234 213.27 30.4156C212.248 31.0234 211.18 31.5621 210.177 32.0548C202.919 35.6279 194.22 39.6707 182.839 42.5485C176.593 44.1279 169.777 45.2652 162.588 45.9375C145.063 47.5675 127.063 48.5713 109.657 49.5382C84.2562 50.9518 60.2595 52.2871 42.8395 55.386C18.5344 59.7465 5.13696 73.4035 1.87849 97.1353Z" fill="black"/>
<path d="M1.95759 97.1392L1.50195 97.0747C4.83406 73.4074 18.4525 59.7365 43.1441 55.2747C60.9645 52.0884 85.7068 50.6978 111.899 49.2244C128.251 48.3035 145.16 47.3549 161.333 45.9137C168.393 45.2875 175.103 44.2377 181.27 42.7964C192.532 40.1673 200.932 36.6033 208.323 33.1499C209.299 32.6941 210.339 32.1876 211.351 31.5844C223.847 24.0882 241.46 14.7226 266.989 8.77352C289.071 3.62104 309.248 2.13838 332.416 3.95257C362.866 6.46204 400.495 10.6015 421.389 20.4046C425.108 22.1497 426.903 24.2402 428.348 25.9208L428.597 26.2109C429.319 27.0489 430.695 28.0896 432.38 28.504C454.121 33.8406 487.001 40.6093 530.115 48.6166L530.033 49.0678C486.913 41.0559 454.02 34.2873 432.274 28.9506C430.484 28.5132 429.025 27.4035 428.256 26.5102L428.007 26.2201C426.595 24.5717 424.836 22.5227 421.205 20.8236C400.366 11.0528 362.792 6.92249 332.38 4.41302C309.262 2.59883 289.127 4.08149 267.1 9.21555C241.63 15.1554 224.058 24.498 211.591 31.9758C210.564 32.5928 209.51 33.1039 208.521 33.5643C201.102 37.0316 192.68 40.6001 181.376 43.2431C175.186 44.6889 168.457 45.7434 161.374 46.3742C145.192 47.8154 128.279 48.7639 111.922 49.6848C85.7436 51.1583 61.0197 52.5489 43.2224 55.7306C18.7562 60.1463 5.25748 73.6929 1.95759 97.1392Z" fill="black"/>
<path d="M2.04352 97.1418L1.58789 97.0773C4.96142 73.7001 18.6857 60.1397 43.543 55.6227C61.7914 52.3442 87.3483 50.8938 114.406 49.3605C129.612 48.4995 145.338 47.6062 160.13 46.3537C167.089 45.7644 173.716 44.802 179.828 43.4897C191.642 40.9572 200.387 37.4348 206.688 34.649C207.603 34.2438 208.671 33.7465 209.679 33.1341C222.105 25.5919 239.539 16.148 264.3 10.0285C280.606 5.99496 301.216 2.1778 330.459 4.39719C364.157 6.95731 401.211 10.908 420.573 20.794C424.573 22.8338 426.027 25.3386 427.09 27.1666C427.633 28.0968 428.973 29.2525 430.68 29.6577C447.561 33.6867 471.867 38.1208 497.603 42.8175C508.322 44.7744 519.4 46.7958 529.884 48.7803L529.797 49.2316C519.317 47.247 508.234 45.221 497.52 43.2687C471.779 38.5721 447.465 34.1379 430.574 30.1043C428.733 29.6669 427.283 28.4099 426.713 27.4291C425.659 25.6195 424.246 23.1837 420.366 21.2038C401.078 11.3593 364.075 7.41316 330.427 4.85764C301.252 2.63826 280.684 6.45542 264.415 10.4752C239.714 16.5808 222.317 26.0017 209.923 33.5301C208.892 34.1563 207.806 34.6582 206.876 35.068C200.557 37.863 191.785 41.3993 179.929 43.941C173.799 45.2533 167.153 46.2202 160.176 46.8096C145.375 48.062 129.649 48.9553 114.438 49.8164C87.3943 51.3497 61.8512 52.7955 43.6305 56.0693C18.9894 60.5541 5.38484 73.9856 2.04352 97.1418Z" fill="black"/>
<path d="M2.12653 97.1428L1.6709 97.0737C3.35997 85.6591 7.44226 76.823 14.1433 70.0635C21.1987 62.9495 30.9419 58.3357 43.939 55.9598C62.6752 52.5755 89.1526 51.0698 117.186 49.472C131.135 48.68 145.564 47.8558 158.924 46.783C165.782 46.2304 172.331 45.3556 178.379 44.1768C190.777 41.764 199.531 38.4349 205.04 36.1373C205.938 35.7643 206.996 35.2946 207.999 34.6776C215.257 30.2158 234.537 18.3684 261.603 11.2774C279.111 6.69125 299.333 2.73595 328.494 4.82641C363.564 7.34509 401.828 11.2543 419.75 21.1633C424.021 23.5254 425.051 26.546 425.604 28.1714C425.884 29.0002 427.118 30.3586 428.968 30.7914C440.943 33.5679 458.515 36.5287 478.867 39.959C494.759 42.6343 512.773 45.6733 529.636 48.9241L529.548 49.3753C512.694 46.1245 494.681 43.0901 478.789 40.4149C458.432 36.9845 440.851 34.0238 428.862 31.2426C426.957 30.8006 425.535 29.41 425.167 28.3234C424.43 26.1592 423.326 23.6682 419.524 21.5685C401.681 11.701 363.476 7.80094 328.457 5.28686C299.366 3.1964 279.189 7.1471 261.714 11.7194C234.721 18.8058 215.483 30.6302 208.243 35.0828C207.212 35.7183 206.135 36.1925 205.22 36.5747C199.692 38.877 190.906 42.2153 178.466 44.6372C172.4 45.8206 165.837 46.6955 158.961 47.248C145.591 48.3209 131.163 49.1405 117.209 49.9371C89.1894 51.5302 62.7258 53.0359 44.0172 56.4157C19.2197 60.9511 5.51387 74.2721 2.12653 97.1428Z" fill="black"/>
<path d="M2.20661 97.1408L1.75098 97.0718C3.45845 85.8413 7.51313 77.1479 14.1451 70.4944C21.2374 63.3758 31.1094 58.7344 44.3274 56.3078C63.6343 52.7991 92.4405 51.1645 120.294 49.5806C132.858 48.8669 145.846 48.1255 157.711 47.2276C164.468 46.7165 170.934 45.9246 176.926 44.8793C186.559 43.1941 195.216 40.8319 203.394 37.6456C204.223 37.3233 205.304 36.872 206.317 36.2412C217.639 29.1917 235.408 19.0617 258.903 12.5509C275.43 7.96936 295.653 3.25431 326.531 5.28491C352.304 7.08068 400.283 10.4282 418.928 21.562C422.932 23.9517 423.792 26.8848 424.096 29.1779C424.234 30.2047 425.537 31.563 427.262 31.9544C436.43 34.0218 450.932 36.232 467.726 38.7875C486.73 41.6792 508.264 44.9576 529.393 49.0925L529.306 49.5437C508.186 45.4135 486.656 42.135 467.657 39.2388C450.859 36.6787 436.348 34.4731 427.161 32.401C425.187 31.9544 423.792 30.4119 423.636 29.2377C423.327 26.917 422.499 24.2326 418.688 21.9579C400.136 10.8794 352.23 7.54114 326.494 5.74537C295.69 3.71937 275.518 8.42521 259.023 12.9975C235.588 19.4945 217.855 29.6015 206.556 36.6372C205.511 37.2864 204.407 37.7515 203.555 38.0784C195.349 41.274 186.665 43.6453 177 45.3352C170.994 46.385 164.514 47.177 157.743 47.6927C145.874 48.5906 132.882 49.3319 120.317 50.0456C92.4773 51.6296 63.685 53.2642 44.4057 56.7683C19.1019 61.4142 5.6906 74.2471 2.20661 97.1408Z" fill="black"/>
<path d="M2.29255 97.1437L1.83691 97.0746C5.40374 74.2453 19.0313 61.4032 44.7263 56.656C64.7052 53.0046 94.7586 51.3101 123.818 49.6663C135.342 49.017 146.222 48.4 156.508 47.6725C163.154 47.2029 169.538 46.4984 175.479 45.5774C185.273 44.0672 194.114 41.903 201.75 39.1495C202.96 38.7121 203.848 38.2977 204.635 37.8004C211.12 33.707 230.846 21.2471 256.205 13.8153C273.772 8.66287 293.516 3.79588 324.564 5.72978C351.165 7.47951 400.682 10.7395 418.102 21.947C422.336 24.6729 422.682 27.9421 422.576 30.1661C422.525 31.2343 423.735 32.6986 425.558 33.0992C432.692 34.6647 444.382 36.2394 459.187 38.2378C479.318 40.9545 504.378 44.3342 529.157 49.2427L529.07 49.6939C504.304 44.7855 479.258 41.4057 459.132 38.6937C444.317 36.6953 432.618 35.1159 425.466 33.5458C423.39 33.0899 422.06 31.4185 422.125 30.143C422.226 28.0342 421.899 24.9307 417.863 22.3337C400.54 11.1908 351.106 7.93536 324.545 6.18563C293.576 4.25633 273.873 9.11412 256.343 14.2528C231.048 21.6707 211.359 34.0983 204.893 38.1872C204.074 38.7029 203.158 39.1357 201.915 39.5823C194.248 42.3451 185.384 44.5184 175.558 46.0333C169.602 46.9542 163.205 47.6587 156.55 48.133C146.259 48.8605 135.374 49.4775 123.85 50.1267C94.8 51.7706 64.765 53.465 44.8138 57.1118C19.3351 61.8177 5.82716 74.54 2.29255 97.1437Z" fill="black"/>
<path d="M2.37165 97.143L1.91602 97.0693C5.53807 74.5301 19.2669 61.7986 45.1184 56.996C65.9073 53.1743 97.4058 51.4199 127.864 49.7209C137.557 49.1821 146.711 48.671 155.304 48.1047C161.816 47.6765 168.117 47.0594 174.035 46.2675C186.577 44.596 195.137 42.2845 200.112 40.6407C201.281 40.2539 202.188 39.8441 202.966 39.3468C209.4 35.2212 228.987 22.6692 253.513 15.0671C272.052 9.32526 291.285 4.32013 322.609 6.16655C363.312 8.69444 402.947 12.4011 417.288 22.3285C420.542 24.5801 421.813 27.55 421.058 31.1462C420.828 32.2513 421.997 33.8444 423.856 34.245C429.351 35.4192 439.279 36.5749 451.843 38.0438C472.452 40.4473 500.679 43.7442 528.914 49.3986L528.822 49.8498C500.605 44.1954 472.388 40.9032 451.788 38.4996C439.21 37.0308 429.273 35.8704 423.755 34.6963C421.61 34.2358 420.321 32.394 420.602 31.0541C421.325 27.6099 420.151 24.8794 417.022 22.7107C400.812 11.4894 349.919 8.32607 322.576 6.6316C291.331 4.78979 272.144 9.78571 253.647 15.5138C229.176 23.0928 209.634 35.6218 203.21 39.7382C202.4 40.2585 201.461 40.6868 200.255 41.0828C195.261 42.7312 186.673 45.0519 174.095 46.7279C168.167 47.5199 161.857 48.1369 155.336 48.5697C146.743 49.1361 137.584 49.6472 127.892 50.1859C97.4473 51.885 65.9625 53.6393 45.2058 57.4519C19.5707 62.213 5.96149 74.8248 2.37165 97.143Z" fill="black"/>
<path d="M2.45759 97.1472L2.00195 97.0736C5.67924 74.8244 19.5093 62.1988 45.5127 57.3456C67.3049 53.3166 101.997 51.4288 132.603 49.7619C140.197 49.3475 147.368 48.9561 154.096 48.5463C160.415 48.1642 166.638 47.63 172.584 46.967C186.092 45.4567 194.597 43.2972 198.468 42.146C199.595 41.8099 200.516 41.4047 201.284 40.9028C218.414 29.746 235.079 21.4809 250.815 16.333C265.814 11.4245 286.354 4.70192 320.642 6.6128C362.464 9.05781 403.015 12.7046 416.463 22.7149C419.818 25.2105 420.849 28.3785 419.528 32.1219C419.358 32.6008 419.436 33.1672 419.749 33.7151C420.219 34.5485 421.116 35.1748 422.152 35.3866C426.271 36.243 434.182 37.012 445.127 38.0802C465.773 40.0924 496.977 43.136 528.678 49.5501L528.586 50.0014C496.908 43.5918 465.722 40.5529 445.085 38.5407C434.122 37.4724 426.202 36.6989 422.06 35.8378C420.895 35.5984 419.887 34.8847 419.353 33.9407C418.976 33.2731 418.889 32.5732 419.1 31.9654C420.347 28.4337 419.367 25.4408 416.196 23.0786C402.845 13.142 362.372 9.50906 320.624 7.06865C286.428 5.16698 265.929 11.8712 250.967 16.7658C235.268 21.9045 218.64 30.1512 201.542 41.285C200.737 41.8099 199.779 42.2335 198.606 42.5835C194.721 43.7392 186.184 45.9079 172.644 47.4182C166.688 48.0813 160.461 48.6154 154.133 48.9976C147.404 49.4074 140.234 49.7988 132.64 50.2132C102.044 51.88 67.3693 53.7679 45.6093 57.7922C19.8131 62.6086 6.10266 75.1099 2.45759 97.1472Z" fill="black"/>
<path d="M2.54059 97.1461L2.08496 97.0678C3.87068 86.5879 7.82411 78.4608 14.1754 72.2171C21.4333 65.0801 31.8162 60.3282 45.9087 57.6852C68.9987 53.3937 107.442 51.377 138.329 49.7562C143.41 49.4891 148.297 49.2358 152.891 48.978C158.989 48.6419 164.958 48.209 171.139 47.6565C185.388 46.3856 193.852 44.4241 196.829 43.6413C197.929 43.3512 198.841 42.9645 199.609 42.4534C216.573 31.2137 232.898 22.8472 248.123 17.5888C264.079 12.0772 283.929 5.22106 318.686 7.04906C359.537 9.29608 403.001 12.9613 415.649 23.0959C419.92 26.5217 419.289 30.4217 418.005 33.0877C417.761 33.5988 417.789 34.2112 418.083 34.8098C418.516 35.6755 419.4 36.3201 420.449 36.5319C423.385 37.1259 429.829 37.6232 438.753 38.3093C459.09 39.8748 493.134 42.4948 528.439 49.7009L528.347 50.1521C493.065 42.9506 459.044 40.3307 438.716 38.7651C429.778 38.079 423.321 37.5818 420.357 36.9786C419.169 36.7391 418.166 36.0024 417.674 35.0078C417.31 34.2803 417.283 33.5252 417.591 32.8805C418.801 30.3618 419.395 26.6828 415.359 23.4458C402.817 13.3941 359.44 9.74272 318.663 7.50031C283.998 5.67691 264.194 12.5146 248.275 18.0125C233.082 23.257 216.794 31.6097 199.862 42.8263C199.052 43.3651 198.1 43.7703 196.949 44.0742C193.962 44.8615 185.466 46.8277 171.185 48.1031C164.995 48.6557 159.021 49.0885 152.923 49.4292C148.33 49.6825 143.442 49.9403 138.361 50.2074C107.484 51.8282 69.0585 53.8404 46.0007 58.1272C19.6982 63.0679 6.29612 75.0995 2.54059 97.1461Z" fill="black"/>
<path d="M2.6236 97.1449L2.16797 97.0666C3.9721 86.7708 7.90251 78.7866 14.1801 72.6441C21.4841 65.5025 31.9913 60.723 46.3046 58.0247C71.1896 53.3695 114.166 51.256 145.541 49.7181L151.685 49.4142C159.288 49.0367 165.372 48.6361 169.395 48.369L169.689 48.3506C184.445 47.3744 192.936 45.6431 195.186 45.1366C196.245 44.8972 197.165 44.5196 197.925 44.0039C218.81 29.9094 235.282 22.5421 245.421 18.8493L245.808 18.7066C261.668 12.9233 281.407 5.72637 316.721 7.48991C358.584 9.65404 402.974 13.2456 414.825 23.4815C419.16 27.225 418.116 31.3 416.477 34.0535C416.151 34.606 416.128 35.2645 416.417 35.9183C416.809 36.7978 417.702 37.4747 418.746 37.6819C420.661 38.0594 425.392 38.3173 432.549 38.7087C452.279 39.7861 489.001 41.7983 528.204 49.8563L528.112 50.3075C488.942 42.2542 452.242 40.2466 432.526 39.1645C425.351 38.7731 420.606 38.5107 418.659 38.1285C417.471 37.8937 416.454 37.1201 415.999 36.1025C415.649 35.3197 415.681 34.4863 416.082 33.8141C417.633 31.2079 418.622 27.3631 414.526 23.8268C402.781 13.683 358.488 10.1099 316.703 7.94576C281.485 6.18682 261.792 13.3653 245.974 19.1348L245.587 19.2775C235.471 22.9658 219.036 30.3146 198.192 44.3815C197.382 44.9294 196.406 45.33 195.297 45.5832C193.037 46.0897 184.523 47.8257 169.731 48.8064L169.436 48.8248C165.409 49.0919 159.325 49.4925 151.717 49.8701L145.573 50.174C114.208 51.7165 71.254 53.8254 46.3967 58.476C19.9423 63.4627 6.44356 75.3838 2.6236 97.1449Z" fill="black"/>
<path d="M2.70787 97.1456L2.25684 97.0673C6.18265 75.3754 19.8931 63.445 46.7065 58.3754C74.2884 53.1861 125.752 50.9391 150.49 49.857C154.636 49.6774 158.332 49.5025 161.457 49.3597C164.177 49.2308 166.469 49.1249 168.255 49.0512C179.903 48.5631 188.961 47.4857 193.559 46.643C194.585 46.4543 195.492 46.0905 196.26 45.5656C212.318 34.5055 228.822 25.4668 242.739 20.1163L243.637 19.771C259.299 13.7436 278.794 6.23822 314.771 7.9419C355.12 9.89883 402.865 13.4766 414.012 23.8736C418.384 27.9486 416.939 32.1848 414.955 35.0212C414.541 35.6152 414.467 36.3335 414.757 37.0426C415.121 37.9451 416 38.6311 417.049 38.8337C418.103 39.0363 421.403 39.133 426.401 39.2804C443.748 39.7915 484.364 40.9887 527.971 50.0182L527.879 50.4694C484.304 41.4445 443.715 40.2473 426.383 39.7362C421.362 39.5889 418.048 39.4922 416.957 39.2804C415.761 39.0502 414.753 38.2582 414.329 37.2129C413.984 36.3657 414.076 35.4678 414.578 34.7541C416.456 32.0697 417.827 28.0591 413.694 24.2097C402.658 13.914 355.014 10.3547 314.743 8.39775C278.863 6.70328 259.418 14.1857 243.798 20.1992L242.901 20.5445C229.02 25.8812 212.548 34.9015 196.518 45.9431C195.699 46.5095 194.732 46.8963 193.641 47.0943C189.03 47.9415 179.945 49.019 168.278 49.5117C166.492 49.5853 164.205 49.6912 161.48 49.8202C158.355 49.9675 154.659 50.1379 150.508 50.3221C125.784 51.3995 74.339 53.6465 46.7939 58.8313C20.1922 63.8548 6.59686 75.6747 2.70787 97.1456Z" fill="black"/>
<path d="M2.78697 97.1479L2.33594 97.065C5.02832 82.6574 12.5486 65.2753 47.0939 58.7184C66.4561 55.0532 101.788 52.1386 149.276 50.2921C157.251 50.0067 163.175 49.7994 166.801 49.7396C181.326 49.4955 190.269 48.3628 191.912 48.1372C192.906 47.9991 193.799 47.6583 194.572 47.115C203.749 40.6456 221.859 28.7015 240.034 21.371L241.079 20.9428C256.589 14.607 275.896 6.724 312.802 8.37703C350.859 10.1037 402.668 13.6308 413.184 24.2535C417.561 28.6738 415.729 33.0666 413.424 35.972C412.922 36.6028 412.798 37.3994 413.083 38.1638C413.428 39.0847 414.289 39.78 415.338 39.9734C415.711 40.0424 417.487 40.0378 420.171 40.0378C434.636 40.0148 478.671 39.9457 527.723 50.1678L527.631 50.6191C478.621 40.4062 434.631 40.4753 420.166 40.4937C417.267 40.4983 415.665 40.5029 415.251 40.4246C414.045 40.199 413.051 39.3932 412.65 38.3203C412.31 37.404 412.457 36.4417 413.06 35.6819C415.251 32.9238 416.995 28.7567 412.853 24.5758C402.447 14.0682 350.758 10.5596 312.779 8.83288C275.979 7.18446 256.722 15.049 241.254 21.3664L240.204 21.7947C222.076 29.1067 203.998 41.0324 194.834 47.488C194.001 48.0727 193.039 48.4457 191.972 48.5931C190.324 48.8187 181.359 49.956 166.806 50.2C163.184 50.2599 157.261 50.4671 149.289 50.7526C101.825 52.5944 66.5159 55.5045 47.1768 59.1697C12.9122 65.6713 5.45634 82.883 2.78697 97.1479Z" fill="black"/>
<path d="M2.87291 97.1504L2.42188 97.0629C5.16949 82.8441 12.7726 65.6737 47.4928 59.0616C79.5252 52.956 147.622 50.2578 165.359 50.4373C177.786 50.557 186.926 49.917 190.281 49.6361C191.225 49.5579 192.127 49.2217 192.895 48.6646C198.478 44.6264 218.19 30.822 237.336 22.6305L238.804 21.9997C254.148 15.4152 273.243 7.22374 310.84 8.81691C349.739 10.4699 402.588 13.9049 412.363 24.6381C416.713 29.413 414.508 33.9531 411.899 36.923C411.259 37.6459 411.098 38.6175 411.457 39.52C411.82 40.4225 412.644 41.0349 413.611 41.1131C414.103 41.0763 467.007 37.6413 527.482 50.3176L527.386 50.7689C466.971 38.1064 414.131 41.5368 413.606 41.5736C412.432 41.4769 411.457 40.7586 411.029 39.6949C410.601 38.6267 410.794 37.4802 411.549 36.6237C414.039 33.7965 416.137 29.4729 412.023 24.9512C401.244 13.1175 333.184 10.2259 310.822 9.27736C273.335 7.67959 254.291 15.8572 238.988 22.4233L237.52 23.0541C218.415 31.2272 198.74 45.0086 193.167 49.0375C192.329 49.6407 191.344 50.0045 190.318 50.092C186.958 50.3729 177.804 51.0129 165.355 50.8932C147.613 50.7228 79.5851 53.4119 47.5803 59.5083C13.127 66.0789 5.5883 83.0743 2.87291 97.1504Z" fill="black"/>
<path d="M112.363 121.688C109.859 121.688 107.825 119.653 107.825 117.148C107.825 114.643 109.859 112.608 112.363 112.608C114.867 112.608 116.901 114.643 116.901 117.148C116.901 119.653 114.867 121.688 112.363 121.688ZM112.363 113.068C110.113 113.068 108.285 114.901 108.285 117.148C108.285 119.4 110.117 121.228 112.363 121.228C114.609 121.228 116.441 119.395 116.441 117.148C116.441 114.896 114.609 113.068 112.363 113.068Z" fill="black"/>
<path d="M112.362 124.035C108.565 124.035 105.473 120.946 105.473 117.143C105.473 113.339 108.561 110.25 112.362 110.25C116.164 110.25 119.252 113.339 119.252 117.143C119.252 120.946 116.159 124.035 112.362 124.035ZM112.362 110.756C108.842 110.756 105.974 113.62 105.974 117.147C105.974 120.674 108.837 123.538 112.362 123.538C115.888 123.538 118.75 120.674 118.75 117.147C118.75 113.62 115.883 110.756 112.362 110.756Z" fill="black"/>
<path d="M112.364 126.39C107.269 126.39 103.127 122.246 103.127 117.149C103.127 112.051 107.269 107.907 112.364 107.907C117.459 107.907 121.601 112.051 121.601 117.149C121.601 122.246 117.459 126.39 112.364 126.39ZM112.364 108.451C107.568 108.451 103.67 112.351 103.67 117.149C103.67 121.946 107.568 125.846 112.364 125.846C117.16 125.846 121.058 121.946 121.058 117.149C121.058 112.351 117.155 108.451 112.364 108.451Z" fill="black"/>
<path d="M112.363 128.743C105.975 128.743 100.774 123.545 100.774 117.149C100.774 110.758 105.97 105.555 112.363 105.555C118.756 105.555 123.952 110.753 123.952 117.149C123.952 123.54 118.751 128.743 112.363 128.743ZM112.363 106.139C106.297 106.139 101.359 111.076 101.359 117.144C101.359 123.213 106.293 128.154 112.363 128.154C118.429 128.154 123.367 123.218 123.367 117.144C123.363 111.08 118.429 106.139 112.363 106.139Z" fill="black"/>
<path d="M112.365 131.091C104.679 131.091 98.4287 124.838 98.4287 117.149C98.4287 109.459 104.679 103.206 112.365 103.206C120.051 103.206 126.301 109.459 126.301 117.149C126.301 124.838 120.051 131.091 112.365 131.091ZM112.365 103.832C105.024 103.832 99.0546 109.804 99.0546 117.149C99.0546 124.493 105.024 130.465 112.365 130.465C119.705 130.465 125.675 124.493 125.675 117.149C125.675 109.804 119.701 103.832 112.365 103.832Z" fill="black"/>
<path d="M112.362 133.445C103.383 133.445 96.0742 126.133 96.0742 117.149C96.0742 108.166 103.383 100.854 112.362 100.854C121.341 100.854 128.65 108.166 128.65 117.149C128.65 126.133 121.341 133.445 112.362 133.445ZM112.362 101.522C103.751 101.522 96.7462 108.53 96.7462 117.145C96.7462 125.76 103.751 132.768 112.362 132.768C120.973 132.768 127.978 125.76 127.978 117.145C127.978 108.534 120.973 101.522 112.362 101.522Z" fill="black"/>
<path d="M112.363 135.79C102.086 135.79 93.7285 127.423 93.7285 117.146C93.7285 106.868 102.091 98.502 112.363 98.502C122.636 98.502 130.998 106.868 130.998 117.146C130.998 127.423 122.641 135.79 112.363 135.79ZM112.363 99.2111C102.478 99.2111 94.4373 107.255 94.4373 117.146C94.4373 127.036 102.478 135.08 112.363 135.08C122.249 135.08 130.29 127.036 130.29 117.146C130.29 107.255 122.245 99.2111 112.363 99.2111Z" fill="black"/>
<path d="M112.363 138.146C100.792 138.146 91.376 128.725 91.376 117.15C91.376 105.574 100.792 96.1528 112.363 96.1528C123.933 96.1528 133.35 105.574 133.35 117.15C133.35 128.725 123.933 138.146 112.363 138.146ZM112.363 96.9034C101.207 96.9034 92.1308 105.984 92.1308 117.145C92.1308 128.306 101.207 137.386 112.363 137.386C123.519 137.386 132.595 128.306 132.595 117.145C132.595 105.984 123.519 96.9034 112.363 96.9034Z" fill="black"/>
<path d="M112.366 140.495C99.4977 140.495 89.0273 130.02 89.0273 117.146C89.0273 104.271 99.4977 93.8008 112.366 93.8008C125.234 93.8008 135.705 104.276 135.705 117.146C135.705 130.015 125.234 140.495 112.366 140.495ZM112.366 94.5974C99.9349 94.5974 89.8236 104.714 89.8236 117.15C89.8236 129.587 99.9349 139.703 112.366 139.703C124.797 139.703 134.908 129.587 134.908 117.15C134.908 104.714 124.792 94.5974 112.366 94.5974Z" fill="black"/>
<path d="M112.361 142.845C98.1991 142.845 86.6748 131.315 86.6748 117.147C86.6748 102.978 98.1991 91.4487 112.361 91.4487C126.522 91.4487 138.046 102.978 138.046 117.147C138.046 131.315 126.522 142.845 112.361 142.845ZM112.361 92.2822C98.6594 92.2822 87.5124 103.434 87.5124 117.142C87.5124 130.85 98.6594 142.002 112.361 142.002C126.062 142.002 137.209 130.85 137.209 117.142C137.209 103.434 126.062 92.2822 112.361 92.2822Z" fill="black"/>
<path d="M112.364 145.195C96.9044 145.195 84.3262 132.611 84.3262 117.144C84.3262 101.677 96.9044 89.0933 112.364 89.0933C127.823 89.0933 140.401 101.677 140.401 117.144C140.397 132.615 127.823 145.195 112.364 145.195ZM112.364 89.9773C97.3877 89.9773 85.2052 102.166 85.2052 117.149C85.2052 132.132 97.3877 144.32 112.364 144.32C127.34 144.32 139.522 132.132 139.522 117.149C139.518 102.166 127.335 89.9773 112.364 89.9773Z" fill="black"/>
<path d="M112.365 147.55C95.6127 147.55 81.9805 133.911 81.9805 117.151C81.9805 100.39 95.6127 86.7515 112.365 86.7515C129.118 86.7515 142.75 100.39 142.75 117.151C142.75 133.911 129.118 147.55 112.365 147.55ZM112.365 87.6724C96.1189 87.6724 82.9009 100.897 82.9009 117.151C82.9009 133.405 96.1189 146.629 112.365 146.629C128.612 146.629 141.83 133.405 141.83 117.151C141.83 100.897 128.612 87.6724 112.365 87.6724Z" fill="black"/>
<path d="M441.485 121.704C438.982 121.704 436.947 119.669 436.947 117.164C436.947 114.659 438.982 112.624 441.485 112.624C443.989 112.624 446.023 114.659 446.023 117.164C446.023 119.669 443.989 121.704 441.485 121.704ZM441.485 113.084C439.235 113.084 437.408 114.917 437.408 117.164C437.408 119.416 439.239 121.244 441.485 121.244C443.731 121.244 445.563 119.411 445.563 117.164C445.563 114.912 443.736 113.084 441.485 113.084Z" fill="black"/>
<path d="M441.485 124.058C437.689 124.058 434.596 120.968 434.596 117.165C434.596 113.362 437.684 110.272 441.485 110.272C445.287 110.272 448.375 113.362 448.375 117.165C448.375 120.968 445.287 124.058 441.485 124.058ZM441.485 110.774C437.965 110.774 435.097 113.638 435.097 117.165C435.097 120.692 437.96 123.556 441.485 123.556C445.011 123.556 447.874 120.692 447.874 117.165C447.874 113.638 445.006 110.774 441.485 110.774Z" fill="black"/>
<path d="M441.487 126.405C436.392 126.405 432.25 122.261 432.25 117.164C432.25 112.067 436.392 107.923 441.487 107.923C446.582 107.923 450.724 112.067 450.724 117.164C450.724 122.261 446.582 126.405 441.487 126.405ZM441.487 108.466C436.691 108.466 432.793 112.366 432.793 117.164C432.793 121.962 436.691 125.862 441.487 125.862C446.283 125.862 450.181 121.962 450.181 117.164C450.181 112.366 446.283 108.466 441.487 108.466Z" fill="black"/>
<path d="M441.483 128.759C435.095 128.759 429.895 123.561 429.895 117.165C429.895 110.774 435.091 105.571 441.483 105.571C447.876 105.571 453.072 110.769 453.072 117.165C453.072 123.556 447.876 128.759 441.483 128.759ZM441.483 106.156C435.417 106.156 430.479 111.092 430.479 117.165C430.479 123.234 435.413 128.17 441.483 128.17C447.554 128.17 452.488 123.234 452.488 117.165C452.488 111.096 447.549 106.156 441.483 106.156Z" fill="black"/>
<path d="M441.485 131.107C433.799 131.107 427.549 124.854 427.549 117.164C427.549 109.475 433.799 103.222 441.485 103.222C449.171 103.222 455.421 109.475 455.421 117.164C455.421 124.854 449.171 131.107 441.485 131.107ZM441.485 103.848C434.144 103.848 428.175 109.82 428.175 117.164C428.175 124.508 434.144 130.481 441.485 130.481C448.826 130.481 454.795 124.508 454.795 117.164C454.795 109.82 448.826 103.848 441.485 103.848Z" fill="black"/>
<path d="M441.484 133.461C432.505 133.461 425.196 126.149 425.196 117.165C425.196 108.182 432.505 100.87 441.484 100.87C450.463 100.87 457.772 108.182 457.772 117.165C457.772 126.149 450.468 133.461 441.484 133.461ZM441.484 101.542C432.873 101.542 425.868 108.55 425.868 117.165C425.868 125.78 432.873 132.788 441.484 132.788C450.095 132.788 457.1 125.78 457.1 117.165C457.104 108.55 450.095 101.542 441.484 101.542Z" fill="black"/>
<path d="M441.483 135.809C431.206 135.809 422.848 127.442 422.848 117.165C422.848 106.887 431.21 98.521 441.483 98.521C451.755 98.521 460.118 106.887 460.118 117.165C460.118 127.442 451.76 135.809 441.483 135.809ZM441.483 99.2301C431.597 99.2301 423.556 107.274 423.556 117.165C423.556 127.055 431.597 135.099 441.483 135.099C451.369 135.099 459.409 127.055 459.409 117.165C459.409 107.274 451.369 99.2301 441.483 99.2301Z" fill="black"/>
<path d="M441.482 138.162C429.912 138.162 420.495 128.741 420.495 117.166C420.495 105.59 429.912 96.1689 441.482 96.1689C453.052 96.1689 462.469 105.59 462.469 117.166C462.469 128.741 453.057 138.162 441.482 138.162ZM441.482 96.9241C430.326 96.9241 421.25 106.004 421.25 117.166C421.25 128.327 430.326 137.407 441.482 137.407C452.638 137.407 461.714 128.327 461.714 117.166C461.714 106.004 452.638 96.9241 441.482 96.9241Z" fill="black"/>
<path d="M441.485 140.511C428.617 140.511 418.146 130.036 418.146 117.166C418.146 104.296 428.617 93.8164 441.485 93.8164C454.353 93.8164 464.824 104.292 464.824 117.166C464.824 130.04 454.353 140.511 441.485 140.511ZM441.485 94.613C429.054 94.613 418.943 104.729 418.943 117.166C418.943 129.603 429.054 139.719 441.485 139.719C453.916 139.719 464.027 129.603 464.027 117.166C464.027 104.729 453.916 94.613 441.485 94.613Z" fill="black"/>
<path d="M441.487 142.864C427.325 142.864 415.801 131.334 415.801 117.166C415.801 102.998 427.325 91.4678 441.487 91.4678C455.648 91.4678 467.172 102.998 467.172 117.166C467.172 131.334 455.653 142.864 441.487 142.864ZM441.487 92.3058C427.785 92.3058 416.638 103.458 416.638 117.166C416.638 130.873 427.785 142.026 441.487 142.026C455.188 142.026 466.335 130.873 466.335 117.166C466.335 103.458 455.188 92.3058 441.487 92.3058Z" fill="black"/>
<path d="M441.487 145.217C426.027 145.217 413.449 132.633 413.449 117.167C413.449 101.7 426.027 89.1157 441.487 89.1157C456.946 89.1157 469.524 101.7 469.524 117.167C469.524 132.633 456.946 145.217 441.487 145.217ZM441.487 89.9952C426.511 89.9952 414.328 102.183 414.328 117.167C414.328 132.15 426.511 144.338 441.487 144.338C456.463 144.338 468.645 132.15 468.645 117.167C468.645 102.183 456.463 89.9952 441.487 89.9952Z" fill="black"/>
<path d="M441.485 147.565C424.733 147.565 411.101 133.927 411.101 117.166C411.101 100.406 424.733 86.7671 441.485 86.7671C458.238 86.7671 471.87 100.406 471.87 117.166C471.87 133.927 458.243 147.565 441.485 147.565ZM441.485 87.688C425.239 87.688 412.021 100.912 412.021 117.166C412.021 133.42 425.239 146.645 441.485 146.645C457.732 146.645 470.95 133.42 470.95 117.166C470.95 100.912 457.732 87.688 441.485 87.688Z" fill="black"/>
<path d="M177.159 74.0383C183.285 74.0567 190.911 74.0751 198.615 73.7712C228.885 72.5741 263.734 71.2341 292.711 70.3593C337.561 69.0009 376.667 67.9511 377.054 67.9419L377.04 67.4814C376.649 67.4906 337.542 68.5405 292.692 69.8988C263.716 70.7737 228.867 72.1136 198.592 73.3108C190.897 73.6147 183.276 73.5963 177.155 73.5778C149.485 73.4996 127.274 74.1212 114.618 75.3276C106.605 76.1242 100.125 78.0765 94.8828 80.7517C94.8966 80.7287 94.9058 80.7057 94.9196 80.6826C100.493 77.8555 107.051 76.0459 114.572 75.2815C163.651 70.3224 376.754 65.0318 378.904 64.9766L378.89 64.5161C376.741 64.5668 163.619 69.862 114.526 74.8211C105.892 75.6913 98.5094 77.9429 92.4251 81.5115C79.9021 88.4873 71.4199 101.822 71.4199 117.095C71.4199 139.565 89.7833 157.845 112.353 157.845C134.923 157.845 153.287 139.565 153.287 117.095C153.287 116.52 153.255 115.944 153.204 115.359H145.886C145.909 115.935 145.923 116.511 145.923 117.095C145.923 135.523 130.864 150.515 112.353 150.515C94.22 150.515 79.6351 136.121 78.8251 118.21C78.8665 115.981 78.9816 113.518 79.2624 111.653C84.9739 87.2625 102.965 83.7493 116.003 83.229C134.178 82.5014 149.683 91.5862 164.811 111.809C167.016 114.756 173.123 121.566 182.111 121.281C194.073 120.88 212.832 119.457 230.97 118.085C247.29 116.851 262.703 115.682 270.168 115.516C287.243 115.134 348.579 112.27 349.196 112.242L349.173 111.786C348.556 111.814 287.225 114.683 270.155 115.06C262.676 115.226 247.258 116.395 230.933 117.634C212.795 119.006 194.041 120.429 182.093 120.83C173.302 121.115 167.338 114.434 165.175 111.542C157.875 101.781 150.562 94.7219 142.83 89.9608C134.353 84.7438 125.571 82.3955 115.98 82.7777C114.618 82.833 113.205 82.9205 111.755 83.0586C113.099 82.9112 114.48 82.8053 115.906 82.7409C133.556 81.9535 149.821 90.6377 165.621 109.304C170.541 115.12 176.957 118.32 183.202 118.122C195.283 117.712 213.716 116.359 231.541 115.056C248.068 113.845 263.674 112.698 271.66 112.514C290.584 112.067 350.438 109.323 351.041 109.295L351.018 108.839C350.415 108.867 290.566 111.611 271.646 112.058C263.647 112.242 248.036 113.389 231.504 114.6C213.684 115.907 195.256 117.256 183.184 117.666C177.072 117.887 170.799 114.719 165.971 109.014C150.07 90.2325 133.685 81.4792 115.883 82.2896C112.086 82.46 108.579 82.9205 105.349 83.671C108.556 82.9158 112.04 82.4416 115.814 82.2528C133.193 81.3917 149.752 89.4175 166.44 106.8C169.487 109.972 175.848 115.254 184.302 114.963C196.503 114.544 214.618 113.26 232.134 112.017C248.855 110.833 264.65 109.714 273.165 109.507C293.944 108.996 352.316 106.371 352.9 106.344L352.882 105.888C352.293 105.916 293.926 108.535 273.155 109.047C264.632 109.254 248.832 110.373 232.107 111.556C214.595 112.795 196.485 114.079 184.288 114.498C176.018 114.798 169.768 109.595 166.776 106.477C149.991 88.9938 133.313 80.9129 115.796 81.7877C113.343 81.9074 111.019 82.1561 108.8 82.5152C111 82.1377 113.306 81.8798 115.731 81.7509C132.838 80.8392 149.697 88.1973 167.269 104.281C170.467 107.209 177.076 112.081 185.411 111.791C197.727 111.358 215.52 110.142 232.733 108.968C249.646 107.813 265.621 106.721 274.679 106.496C297.309 105.92 354.198 103.415 354.769 103.392L354.751 102.936C354.18 102.959 297.295 105.464 274.669 106.04C265.603 106.265 249.623 107.357 232.705 108.512C215.497 109.687 197.709 110.902 185.402 111.335C177.237 111.621 170.734 106.827 167.591 103.945C149.922 87.7736 132.954 80.3603 115.718 81.295C111.212 81.5391 107.084 82.2067 103.337 83.2888C107.065 82.1975 111.171 81.5161 115.653 81.2536C132.254 80.2913 149.899 87.1889 168.102 101.762C172.198 105.041 178.719 108.89 186.52 108.618C198.933 108.176 216.399 107.03 233.29 105.916C250.406 104.787 266.574 103.724 276.188 103.48C300.668 102.84 356.076 100.455 356.633 100.432L356.615 99.9711C356.058 99.9941 300.654 102.375 276.174 103.019C266.551 103.263 250.378 104.332 233.257 105.455C216.371 106.565 198.905 107.716 186.502 108.158C178.839 108.443 172.423 104.631 168.387 101.403C150.097 86.756 132.341 79.8262 115.626 80.7932C113.03 80.9451 110.558 81.2352 108.216 81.6634C110.549 81.2168 112.998 80.9129 115.566 80.7563C131.89 79.7433 149.849 85.964 168.926 99.2481C175.153 103.586 181.439 105.671 187.62 105.45C200.12 105.004 217.26 103.917 233.833 102.867C251.151 101.771 267.504 100.735 277.689 100.468C304.023 99.7592 357.949 97.4984 358.488 97.48L358.469 97.0195C357.926 97.0426 304.005 99.3034 277.675 100.008C267.481 100.275 251.119 101.311 233.8 102.407C217.232 103.457 200.097 104.543 187.602 104.99C181.531 105.211 175.332 103.148 169.188 98.866C150.028 85.522 131.973 79.2783 115.538 80.2913C111.833 80.5215 108.372 81.0464 105.146 81.8614C108.349 81.0372 111.787 80.4939 115.474 80.2544C131.541 79.1954 149.794 84.7438 169.745 96.7248C176.243 100.629 182.627 102.494 188.716 102.278C201.285 101.822 218.083 100.8 234.325 99.8145C251.856 98.7509 268.41 97.7425 279.189 97.4524C307.374 96.6788 359.818 94.5423 360.342 94.5193L360.324 94.0588C359.799 94.0819 307.355 96.2184 279.175 96.9919C268.392 97.2774 251.828 98.2858 234.298 99.354C218.056 100.339 201.262 101.362 188.697 101.817C182.696 102.043 176.4 100.187 169.98 96.3289C149.945 84.2972 131.596 78.7303 115.442 79.794C109.785 80.1669 104.695 81.226 100.18 82.9481C104.677 81.2214 109.748 80.1485 115.382 79.7571C131.172 78.6659 149.738 83.5282 170.569 94.2062C177.431 97.7286 183.731 99.3356 189.816 99.11C202.426 98.6449 218.857 97.6872 234.749 96.7663C252.514 95.7303 269.294 94.7541 280.694 94.4456C310.729 93.6076 361.691 91.5908 362.202 91.5678L362.183 91.1073C361.673 91.1257 310.711 93.1471 280.68 93.9852C269.275 94.2937 252.491 95.2744 234.721 96.3104C218.834 97.236 202.408 98.1937 189.802 98.6542C183.791 98.8752 177.573 97.2866 170.78 93.801C149.876 83.0816 131.228 78.2008 115.354 79.3013C107.953 79.8124 101.501 81.4884 96.0564 84.2696C101.151 81.645 107.47 79.8308 115.299 79.2598C130.593 78.1455 149.987 82.4462 171.397 91.6875C178.632 94.814 184.831 96.1631 190.92 95.9421C203.54 95.4724 219.575 94.5791 235.08 93.7181C253.112 92.7143 270.141 91.7658 282.199 91.4296C314.089 90.5271 363.569 88.6301 364.061 88.6117L364.043 88.1512C363.546 88.1696 314.07 90.0667 282.185 90.9692C270.122 91.3053 253.089 92.2538 235.052 93.2576C219.552 94.1233 203.517 95.012 190.902 95.4816C184.891 95.7026 178.752 94.3627 171.581 91.2639C150.107 81.9903 130.634 77.6851 115.267 78.7994C108.437 79.2967 102.744 80.7287 98.0032 82.8191C102.73 80.7241 108.4 79.2783 115.211 78.7579C130.224 77.6114 149.936 81.2122 172.225 89.1642C176.957 90.8541 184.155 93.0596 192.025 92.7696C204.603 92.2999 220.182 91.4711 235.255 90.6699C252.799 89.7398 270.937 88.7728 283.704 88.4137C317.444 87.4467 365.442 85.6694 365.921 85.6509L365.902 85.1905C365.423 85.2089 317.425 86.9863 283.69 87.9532C270.919 88.3124 252.776 89.2747 235.227 90.2094C220.159 91.0106 204.575 91.8394 192.006 92.3091C184.215 92.5946 177.072 90.4074 172.382 88.7314C150.033 80.7563 130.252 77.151 115.179 78.2975C106.214 78.979 98.6061 81.3503 92.4573 85.3516C92.4757 85.3194 92.4941 85.2826 92.5126 85.2503C98.1458 81.6082 105.51 79.025 115.124 78.2607C129.842 77.0911 149.876 79.9874 173.049 86.6455C178.37 88.1742 185.462 89.8917 193.125 89.6016C205.57 89.132 220.615 88.3722 235.158 87.6355C253.094 86.7284 271.641 85.7937 285.204 85.4069C320.794 84.3755 367.31 82.7178 367.775 82.704L367.757 82.2436C367.292 82.262 320.776 83.915 285.186 84.9464C271.618 85.3332 253.066 86.2726 235.131 87.1796C220.583 87.9164 205.542 88.6761 193.102 89.1458C185.503 89.4359 178.462 87.723 173.174 86.2081C149.945 79.5361 129.856 76.6306 115.083 77.8094C106.384 78.5001 98.9605 80.7655 92.8945 84.5413C92.9176 84.4998 92.9406 84.4584 92.9636 84.4169C98.5371 80.9773 105.74 78.5415 115.027 77.768C129.442 76.5708 149.789 78.7718 173.869 84.1268C179.723 85.4299 186.723 86.7192 194.22 86.4383C206.398 85.9733 220.762 85.2826 234.647 84.6195C253.117 83.7355 272.212 82.8191 286.705 82.4001C324.149 81.3043 369.179 79.7663 369.63 79.7525L369.612 79.2921C369.161 79.3059 324.131 80.8438 286.686 81.9397C272.189 82.3587 253.089 83.275 234.62 84.1591C220.734 84.8267 206.375 85.5128 194.197 85.9779C186.751 86.2587 179.792 84.9741 173.965 83.6756C149.84 78.3113 129.447 76.1103 114.986 77.3075C110.351 77.6943 106.076 78.5139 102.173 79.7663C105.905 78.5507 110.14 77.6805 114.935 77.2661C128.811 76.0643 150.033 77.6022 174.688 81.599C181.057 82.6304 187.961 83.5467 195.316 83.2658C206.983 82.8145 220.394 82.2067 233.363 81.6174C252.624 80.7425 272.539 79.84 288.205 79.3796C327.5 78.2146 371.052 76.801 371.485 76.7872L371.471 76.3267C371.034 76.3406 327.486 77.7542 288.191 78.9191C272.525 79.3796 252.606 80.2821 233.345 81.1569C220.375 81.7463 206.964 82.3541 195.302 82.8053C187.989 83.0816 181.113 82.1745 174.766 81.1477C150.074 77.1464 128.811 75.6084 114.898 76.8102C110.117 77.2246 105.721 78.0949 101.722 79.4118C105.551 78.1317 109.9 77.2154 114.852 76.7688C128.356 75.5532 149.899 76.3728 175.516 79.0757C181.656 79.7249 188.845 80.3926 196.42 80.0979C207.015 79.6835 218.346 79.2 230.344 78.6843C250.99 77.8002 272.336 76.8839 289.71 76.3682C330.855 75.1388 372.925 73.8495 373.344 73.8357L373.33 73.3752C372.911 73.3891 330.841 74.6829 289.696 75.9077C272.318 76.4234 250.972 77.3351 230.326 78.2238C218.332 78.7395 207.001 79.223 196.406 79.6374C188.863 79.9275 181.697 79.2644 175.571 78.6198C149.922 75.9123 128.347 75.0927 114.816 76.3129C109.127 76.824 103.982 77.9752 99.3977 79.7433C103.752 78.0488 108.833 76.8286 114.77 76.2715C127.817 75.0513 149.683 75.148 176.345 76.5478C183 76.8977 190.115 77.2154 197.525 76.9253C205.478 76.6122 213.863 76.2715 222.419 75.9262C246.112 74.9638 270.61 73.9738 291.215 73.3568C334.215 72.0629 374.798 70.8934 375.203 70.8796L375.19 70.4191C374.785 70.4329 334.196 71.6025 291.201 72.8964C270.592 73.5134 246.093 74.508 222.4 75.4657C213.845 75.811 205.459 76.1518 197.506 76.4649C190.119 76.755 183.013 76.4373 176.368 76.0873C149.683 74.6875 127.79 74.5862 114.724 75.811C109.956 76.2577 105.735 77.1279 101.998 78.3297C105.721 77.1279 109.928 76.2439 114.678 75.7742C127.311 74.5862 149.508 73.96 177.159 74.0383Z" fill="url(#paint0_linear)"/>
<path d="M495.559 97.2154C493.695 93.6147 490.823 90.3731 487.261 87.836C476.63 80.2753 455.546 78.3782 440.717 79.0505C439.396 79.1104 438.108 79.2531 436.861 79.4649C433.34 79.8241 430.04 80.6207 426.975 81.7672C426.901 81.7902 426.827 81.8132 426.754 81.8363C422.368 83.3143 418.7 85.5015 415.639 88.057C410.286 92.2103 406.899 97.3858 404.823 101.659C404.708 101.898 404.598 102.133 404.487 102.368C402.039 107.267 400.691 112.341 400.557 116.932C399.89 139.504 418.921 157.885 441.491 157.885C464.061 157.885 482.424 139.513 482.424 116.932C482.424 116.356 482.392 115.772 482.341 115.187H475.023C475.046 115.763 475.06 116.347 475.06 116.932C475.06 135.452 460.001 150.518 441.491 150.518C422.98 150.518 408.16 135.452 407.921 116.932C407.764 104.771 414.857 86.7539 437.689 83.2084C439.475 83.038 441.329 82.9506 443.262 82.9506C457.718 82.9506 469.05 87.5413 476.933 96.5938C489.019 110.472 489.341 130.322 488.449 136.801L489.36 136.925C490.271 130.331 489.94 110.122 477.628 95.986C471.088 88.476 462.247 83.9682 451.28 82.5315C463.702 83.9083 473.712 88.4944 480.523 95.9952C482.99 98.7073 485.006 101.728 486.52 104.96C491.9 116.458 492.604 129.774 491.762 135.921L492.673 136.046C493.41 130.663 493.24 117.162 487.349 104.569C485.798 101.249 483.726 98.1593 481.2 95.3736C474.2 87.6656 463.922 82.9736 451.188 81.5968C464.769 82.7618 475.53 86.8184 482.599 93.5134C485.434 96.1978 487.68 99.223 489.272 102.511C494.51 113.304 496.153 127.039 495.067 135.032L495.978 135.157C497.078 127.025 495.412 113.06 490.096 102.105C488.453 98.7165 486.143 95.5992 483.225 92.8411C475.01 85.0594 461.98 80.7726 445.412 80.3536C462.082 80.3674 476.395 84.2444 484.702 90.9901C487.823 93.5226 490.368 96.6537 492.066 100.038C497.731 111.328 499.549 125.745 498.417 134.153L499.246 134.264C500.396 125.731 498.555 111.103 492.812 99.665C491.063 96.1748 488.439 92.9516 485.227 90.3454C478.627 84.9812 468.336 81.4034 456.112 80.0865C467.669 80.9384 479.649 83.4202 486.782 88.4944C490.243 90.9578 493.028 94.0981 494.832 97.5884C500.926 109.362 502.918 124.456 501.736 133.278L502.532 133.384C503.747 124.433 501.731 109.141 495.559 97.2154Z" fill="url(#paint1_linear)"/>
<path d="M13.5632 125.622C13.3791 125.622 13.1904 125.617 13.0017 125.613C9.30598 125.461 0.0920473 124.498 0 124.489L0.0460236 124.033C0.138071 124.042 9.33359 125.005 13.0155 125.152C15.5008 125.253 17.7559 124.636 20.1491 123.987C22.2478 123.416 24.4201 122.827 26.8318 122.716C32.8425 122.449 50.9804 122.265 51.1645 122.265L51.1691 122.726C50.985 122.726 32.8563 122.905 26.8548 123.177C24.4938 123.283 22.3491 123.868 20.2734 124.429C18.0275 125.042 15.892 125.622 13.5632 125.622Z" fill="black"/>
<path d="M14.1456 126.705C13.759 126.705 13.3678 126.692 12.972 126.659C10.8595 126.489 0.46278 125.315 0.108398 124.794L0.297095 124.666L0.439769 124.491C0.959835 124.785 8.94493 125.872 13.0042 126.199C15.4803 126.397 17.7769 125.895 20.2023 125.361C22.2642 124.905 24.3997 124.435 26.7515 124.389C32.8956 124.274 50.2557 124.196 51.0473 124.242L51.0197 124.702C50.2327 124.656 32.8956 124.735 26.7607 124.85C24.4503 124.896 22.3424 125.361 20.299 125.807C18.2279 126.268 16.2443 126.705 14.1456 126.705Z" fill="black"/>
<path d="M14.8148 127.819C14.1981 127.819 13.5722 127.787 12.9371 127.709C11.3861 127.52 0.961734 126.065 0.381836 125.204L0.75923 124.941C1.24248 125.453 8.50961 126.71 12.9969 127.257C15.4822 127.557 17.8156 127.165 20.2871 126.751C22.3029 126.41 24.3878 126.047 26.6751 126.074C28.5345 126.083 31.2775 126.097 34.2598 126.106C41.5638 126.134 49.8434 126.166 50.9204 126.226L50.8928 126.687C49.8296 126.622 41.1956 126.59 34.2598 126.567C31.2775 126.558 28.5345 126.544 26.6751 126.535C24.4292 126.516 22.3627 126.871 20.3653 127.207C18.4829 127.515 16.6788 127.819 14.8148 127.819Z" fill="black"/>
<path d="M15.656 128.968C14.7494 128.968 13.8381 128.908 12.9038 128.756C12.439 128.683 1.51299 126.882 0.652344 125.607L1.03434 125.349C1.50838 126.054 7.48225 127.403 12.9775 128.301C15.4766 128.71 17.8698 128.43 20.4057 128.135C22.3663 127.905 24.3913 127.674 26.5913 127.739C29.8221 127.84 35.4278 127.923 40.3707 127.992C45.3505 128.066 49.6491 128.126 50.7813 128.195L50.7537 128.655C49.6307 128.591 45.3367 128.526 40.3615 128.453C35.414 128.379 29.8083 128.301 26.5728 128.199C24.4051 128.13 22.3939 128.365 20.4563 128.591C18.8271 128.784 17.2485 128.968 15.656 128.968Z" fill="black"/>
<path d="M50.6284 130.634C49.3627 130.56 46.0352 130.477 42.183 130.38C36.8811 130.247 30.2813 130.086 26.489 129.874C24.4225 129.759 22.4895 129.883 20.621 130.003C17.97 130.173 15.4663 130.334 12.8706 129.8C9.5937 129.128 1.87094 127.415 0.922852 126.011L1.30485 125.753C2.00441 126.784 7.78497 128.29 12.9626 129.349C15.4985 129.869 17.97 129.708 20.5887 129.542C22.4711 129.423 24.4133 129.298 26.512 129.414C30.2951 129.625 36.8903 129.787 42.1922 129.92C46.049 130.017 49.3811 130.1 50.656 130.173L50.6284 130.634Z" fill="black"/>
<path d="M50.502 132.612C49.1489 132.533 46.4933 132.441 43.4189 132.331C37.735 132.133 30.6658 131.889 26.404 131.548C24.4664 131.396 22.6439 131.414 20.8812 131.437C18.1151 131.47 15.501 131.502 12.85 130.848C8.1142 129.679 2.25079 127.961 1.20605 126.418L1.58805 126.161C2.33824 127.27 6.37451 128.776 12.9605 130.401C15.5562 131.041 18.1381 131.009 20.8766 130.977C22.6531 130.954 24.4848 130.936 26.4408 131.088C30.6934 131.428 37.758 131.672 43.4373 131.87C46.5163 131.976 49.1719 132.068 50.5296 132.151L50.502 132.612Z" fill="black"/>
<path d="M50.3691 134.591C49.0391 134.512 46.991 134.42 44.6162 134.319C38.9047 134.066 31.0806 133.725 26.308 133.228C24.5545 133.048 22.8838 132.979 21.2638 132.919C18.3275 132.804 15.5569 132.698 12.8093 131.902C6.2831 130.014 2.46774 128.306 1.47363 126.832L1.85563 126.574C2.49996 127.527 4.94381 129.148 12.9381 131.46C15.6305 132.238 18.3735 132.344 21.2822 132.459C22.9068 132.523 24.5821 132.588 26.354 132.772C31.1129 133.265 38.9277 133.61 44.6346 133.859C47.0094 133.965 49.0575 134.052 50.3922 134.13L50.3691 134.591Z" fill="black"/>
<path d="M50.2381 136.565C49.1105 136.5 47.693 136.422 46.0914 136.339C39.9887 136.021 31.6262 135.584 26.223 134.898C24.7272 134.709 23.2821 134.58 21.8876 134.456C18.6981 134.175 15.6882 133.908 12.7887 132.941C6.64915 130.901 2.93504 128.976 1.75684 127.227L2.13883 126.969C3.248 128.608 6.98052 130.523 12.936 132.503C15.7848 133.452 18.7718 133.714 21.9336 133.995C23.3327 134.12 24.7779 134.249 26.2874 134.437C31.6768 135.123 40.0255 135.561 46.1236 135.879C47.7298 135.961 49.1474 136.035 50.2749 136.104L50.2381 136.565Z" fill="black"/>
<path d="M50.1082 138.547L48.1384 138.432C41.87 138.068 32.3983 137.52 26.1299 136.576C25.0392 136.411 23.976 136.268 22.9405 136.13C19.3368 135.646 15.9311 135.186 12.7555 133.993C8.81583 132.511 3.75783 130.208 2.02734 127.644L2.40934 127.386C3.72562 129.338 7.36148 131.475 12.9165 133.565C16.0415 134.739 19.4243 135.195 23.0003 135.674C24.0404 135.812 25.1036 135.959 26.199 136.121C32.449 137.06 41.9068 137.608 48.166 137.972L50.1358 138.087L50.1082 138.547Z" fill="black"/>
<path d="M49.9767 140.522C41.4209 140.015 32.6027 139.389 26.0398 138.247L24.9352 138.058C20.5538 137.303 16.4162 136.589 12.7251 135.038C9.09387 133.509 4.33503 131.059 2.30078 128.048L2.68278 127.79C4.65259 130.709 9.32859 133.113 12.9046 134.614C16.5497 136.147 20.4709 136.82 25.0134 137.607L26.118 137.8C32.658 138.938 41.4623 139.564 50.0043 140.066L49.9767 140.522Z" fill="black"/>
<path d="M49.849 142.498C43.217 142.106 33.5244 141.411 25.9535 139.919C20.7529 138.897 16.5095 137.852 12.6987 136.079C9.39422 134.541 4.95755 131.967 2.57812 128.449L2.96012 128.191C5.27971 131.626 9.64275 134.15 12.892 135.665C16.6568 137.419 20.8725 138.455 26.041 139.468C33.5888 140.951 43.2584 141.646 49.8766 142.037L49.849 142.498Z" fill="black"/>
<path d="M49.7145 144.475C30.0624 143.31 10.7877 140.616 2.84863 128.856L3.23063 128.599C11.0592 140.193 30.2097 142.859 49.7421 144.015L49.7145 144.475Z" fill="black"/>
<path d="M19.3636 87.6873C17.2833 85.6705 19.7364 80.0116 24.8404 75.0571C26.8608 73.0956 28.9917 71.5392 30.9569 70.494C30.7406 70.1302 30.3218 69.4856 30.1699 69.2554C27.4545 70.4572 24.3663 72.5798 21.4715 75.3886C15.3411 81.3423 12.3956 88.134 14.8947 90.556C16.8001 92.407 21.3288 91.1776 26.0922 87.8393C26.0416 87.7748 25.6826 87.319 25.6228 87.2407C22.8844 88.5622 20.5326 88.82 19.3636 87.6873Z" fill="black"/>
<path d="M238.994 46.1392C228.809 46.1668 221.703 45.3472 221.464 40.9683C221.492 36.9992 225.813 36.442 225.813 36.442L226.066 34.416C225.565 34.416 223.457 34.8074 222.072 35.254C212.871 38.2148 213.852 46.8299 219.803 47.7692C225.753 48.7085 238.994 47.7876 238.994 47.7876C238.994 47.7876 239.027 47.1844 238.994 46.1392Z" fill="black"/>
<path d="M162.07 130.028L162.065 129.568L296.726 127.924C303.404 127.846 310.096 126.225 316.07 123.241C322.449 120.059 329.587 118.429 336.711 118.512L390.895 119.212L390.89 119.673L336.707 118.973C329.647 118.885 322.587 120.506 316.277 123.656C310.238 126.667 303.478 128.306 296.731 128.384L162.07 130.028Z" fill="black"/>
<path d="M161.835 130.934L161.83 130.474L296.55 128.977C303.33 128.895 310.956 127.228 315.972 124.723C321.389 122.02 329.526 120.335 336.692 120.422L390.899 121.058L390.894 121.518L336.688 120.883C329.586 120.791 321.532 122.462 316.18 125.137C311.108 127.67 303.403 129.36 296.56 129.438L161.835 130.934Z" fill="black"/>
<path d="M161.599 131.841L161.595 131.381L296.375 130.036C302.33 129.963 311.254 128.512 315.871 126.21C320.929 123.687 330.423 122.264 336.669 122.338L390.898 122.909L390.894 123.369L336.664 122.798C330.465 122.738 321.071 124.129 316.078 126.625C311.227 129.047 302.307 130.428 296.384 130.502L161.599 131.841Z" fill="black"/>
<path d="M161.364 132.749L161.359 132.289L296.195 131.092C301.538 131.027 311.581 129.779 315.764 127.694C320.587 125.285 331.734 124.176 336.64 124.245L390.893 124.751L390.888 125.212L336.636 124.705C331.789 124.636 320.73 125.727 315.971 128.103C311.369 130.401 300.654 131.497 296.199 131.552L161.364 132.749Z" fill="black"/>
<path d="M161.129 133.659L161.124 133.198L296.019 132.153C300.778 132.098 312.026 130.997 315.662 129.183C319.827 127.106 332.392 126.112 336.617 126.162L390.892 126.605L390.888 127.065L336.612 126.623C332.406 126.563 319.97 127.548 315.869 129.593C311.856 131.596 300.046 132.563 296.024 132.613L161.129 133.659Z" fill="black"/>
<path d="M160.896 134.564L160.892 134.104L295.851 133.206C299.34 133.165 312.309 132.29 315.568 130.664C319.102 128.901 332.886 128.026 336.596 128.072L390.895 128.454L390.89 128.915L336.591 128.532C332.891 128.477 319.245 129.343 315.77 131.074C312.392 132.759 299.487 133.621 295.851 133.667L160.896 134.564Z" fill="black"/>
<path d="M160.661 135.469L160.656 135.009L295.671 134.263C298.939 134.226 312.801 133.475 315.461 132.149C318.425 130.671 333.185 129.944 336.568 129.985L390.889 130.303L390.885 130.763L336.559 130.446C333.305 130.418 318.508 131.141 315.659 132.559C312.787 133.991 298.387 134.691 295.667 134.723L160.661 135.469Z" fill="black"/>
<path d="M160.424 136.378V135.918L295.499 135.319C298.002 135.287 313.213 134.707 315.362 133.634C317.792 132.423 334.241 131.861 336.547 131.898L390.892 132.151V132.612L336.542 132.359C333.675 132.322 317.802 132.93 315.57 134.044C313.213 135.223 297.155 135.761 295.503 135.78L160.424 136.378Z" fill="black"/>
<path d="M160.185 137.285V136.825L295.319 136.378C297.965 136.346 313.742 135.876 315.257 135.121C317.111 134.196 334.992 133.79 336.519 133.813L390.887 134.002V134.463L336.515 134.274C334.49 134.251 317.111 134.711 315.464 135.531C313.646 136.438 295.503 136.834 295.324 136.839L160.185 137.285Z" fill="black"/>
<path d="M159.952 138.197V137.736L295.147 137.437C299.123 137.391 314.242 137.064 315.162 136.608C316.419 135.977 335.698 135.724 336.499 135.729L390.89 135.858V136.318L336.494 136.189C334.377 136.171 316.414 136.498 315.365 137.022C314.164 137.621 295.335 137.902 295.147 137.902L159.952 138.197Z" fill="black"/>
<path d="M159.714 139.102V138.642L294.968 138.495L295.47 138.49C312.471 138.338 314.841 138.154 315.071 138.085C315.729 137.753 335.837 137.638 336.458 137.638C336.463 137.638 336.468 137.638 336.472 137.638L390.891 137.703V138.163L336.472 138.099C335.312 138.089 316.061 138.251 315.251 138.508C315.131 138.568 314.712 138.775 295.479 138.95L294.977 138.955L159.714 139.102Z" fill="black"/>
<path d="M390.893 139.551H159.481V140.011H390.893V139.551Z" fill="black"/>
<path d="M397.97 97.0461C401.988 89.3059 409.158 79.2864 420.489 75.5107C425.534 73.83 432.612 72.9091 440.961 72.8446C441.186 72.8446 441.412 72.84 441.633 72.84C462.467 72.84 479.671 79.0239 488.876 84.8579C492.65 87.2522 495.674 90.4846 497.611 94.2189C503.373 105.293 506.508 121.344 505.072 132.386L505.84 132.492C507.299 121.303 504.128 105.049 498.297 93.8459C496.29 89.9919 493.174 86.6491 489.285 84.181C479.989 78.2872 462.633 72.0435 441.633 72.0435C441.407 72.0435 441.182 72.0435 440.956 72.0481C432.529 72.1125 425.368 73.0472 420.25 74.7509C401.67 80.9348 393.814 103.253 391.66 110.933H392.47C393.326 107.904 395.061 102.65 397.97 97.0461Z" fill="black"/>
<path d="M419.091 73.7262C424.245 72.041 431.641 71.1108 440.483 71.0326C462.353 70.8622 480.905 76.7422 490.961 82.2953C495.039 84.5469 498.302 87.8023 500.387 91.7069C506.531 103.2 509.9 119.933 508.4 131.486L509.141 131.587C510.659 119.887 507.254 102.96 501.04 91.3386C498.882 87.305 495.518 83.9437 491.316 81.6184C481.181 76.0193 462.514 70.1117 440.478 70.2636C431.559 70.3419 424.084 71.2858 418.861 72.9941C407.12 76.8343 399.31 87.5168 394.827 95.805C391.467 102.012 389.406 107.837 388.448 110.931H389.254C391.656 103.343 400.511 79.8042 419.091 73.7262Z" fill="black"/>
<path d="M417.694 71.9447C422.95 70.2548 430.668 69.3155 440.006 69.2234C462.622 69.0346 482.712 74.7627 493.039 79.7263C497.357 81.803 500.946 85.1643 503.155 89.1933C509.682 101.096 513.285 118.506 511.72 130.588L512.434 130.685C514.017 118.464 510.377 100.861 503.781 88.8341C501.499 84.6716 497.794 81.1998 493.343 79.0633C482.947 74.0628 462.738 68.2933 439.997 68.4867C430.585 68.5788 422.798 69.5319 417.473 71.2448C405.645 75.0481 397.352 86.1174 392.478 94.7371C388.644 101.52 386.26 107.837 385.225 110.94H385.998C388.543 103.477 398.507 78.1102 417.694 71.9447Z" fill="black"/>
<path d="M416.297 70.1597C421.659 68.4652 429.694 67.5121 439.53 67.4062C461.331 67.2082 483.151 72.1535 495.117 77.1494C499.719 79.0741 503.558 82.4538 505.928 86.6716C511.86 97.2252 516.895 115.39 515.05 129.678L515.736 129.77C517.604 115.321 512.519 96.9719 506.531 86.317C504.087 81.9657 500.124 78.4755 495.384 76.4956C484.237 71.8358 462.9 66.4669 439.53 66.6971C429.625 66.803 421.525 67.7654 416.099 69.4782C404.183 73.2448 395.407 84.7008 390.142 93.6521C385.806 101.019 383.091 107.857 382 110.928H382.736C385.351 103.704 396.465 76.4265 416.297 70.1597Z" fill="black"/>
<path d="M414.903 68.3759C420.371 66.6768 428.724 65.7144 439.056 65.5947C461.424 65.3553 484.381 69.9368 497.198 74.5782C502.081 76.3463 506.168 79.7491 508.704 84.1556C514.968 95.05 520.302 113.873 518.378 128.778L519.036 128.866C520.979 113.809 515.594 94.8013 509.275 83.8103C506.661 79.2656 502.449 75.7569 497.419 73.9381C484.546 69.2784 461.516 64.6738 439.052 64.9132C428.66 65.033 420.242 66.0045 414.715 67.722C402.712 71.4517 393.452 83.2992 387.795 92.5819C382.958 100.525 379.875 107.938 378.747 110.931H379.46C382.148 104.024 394.763 74.6334 414.903 68.3759Z" fill="black"/>
<path d="M413.505 66.5959C419.083 64.8923 427.754 63.9207 438.579 63.7872C461.466 63.5201 485.555 67.7287 499.27 72.0063C504.434 73.6179 508.765 77.039 511.471 81.6436C518.066 92.8648 523.699 112.351 521.702 127.882L522.328 127.965C524.348 112.287 518.664 92.6254 512.014 81.3075C509.229 76.5694 504.765 73.0423 499.454 71.3847C485.693 67.0886 461.54 62.8755 438.574 63.1333C427.689 63.2669 418.959 64.2476 413.325 65.9697C392.214 72.4253 377.993 104.602 375.476 110.933H376.148C378.766 104.496 392.679 72.964 413.505 66.5959Z" fill="black"/>
<path d="M383.785 90.512C390.127 80.7688 400.192 68.3964 412.108 64.814C417.792 63.1058 426.78 62.1204 438.102 61.973C461.321 61.6922 487.154 65.6383 501.338 69.4278C506.7 70.8598 511.399 74.3915 514.239 79.1203C521.17 90.6639 527.102 110.813 525.022 126.975L525.62 127.058C527.714 110.754 521.741 90.4383 514.75 78.798C511.832 73.9356 506.995 70.3026 501.486 68.8292C487.264 65.0305 461.358 61.0613 438.088 61.3514C426.55 61.5034 417.75 62.4657 411.933 64.2154C399.755 67.8807 389.529 80.5017 383.094 90.4475C377.203 99.5507 373.213 108.327 372.159 110.933H372.808C373.936 108.249 377.829 99.6566 383.785 90.512Z" fill="black"/>
<path d="M410.716 63.0269C416.588 61.2864 425.641 60.3241 437.63 60.1583C461.171 59.8452 488.238 63.4091 503.417 66.8487C509.045 68.1242 514.002 71.6789 517.017 76.6011C524.284 88.4624 530.515 109.266 528.357 126.072L528.927 126.151C531.104 109.206 524.827 88.2414 517.504 76.288C514.407 71.2322 509.317 67.5808 503.541 66.2731C488.335 62.829 461.218 59.265 437.626 59.5689C425.591 59.7347 416.483 60.7063 410.559 62.4606C398.299 66.0936 387.584 79.106 380.759 89.3833C374.141 99.3476 369.75 108.764 368.871 110.937H369.502C371.646 106.066 388.753 69.5286 410.716 63.0269Z" fill="black"/>
<path d="M505.577 63.7214C489.289 60.6317 460.934 57.4546 437.14 57.7861C424.645 57.9657 415.233 58.9464 409.167 60.7054C386.04 67.4925 366.761 108.054 365.573 110.936H366.149C367.626 107.626 386.394 67.9713 409.314 61.2441C415.334 59.499 424.7 58.5228 437.149 58.3478C460.893 58.0117 489.211 61.1889 505.476 64.2739C511.367 65.3928 516.581 68.9705 519.78 74.0862C525.933 83.9307 534.176 105.659 531.673 125.174L532.216 125.247C534.738 105.586 526.435 83.7004 520.24 73.7869C516.959 68.5331 511.615 64.8633 505.577 63.7214Z" fill="black"/>
<path d="M507.622 61.1664C490.11 58.4359 460.434 55.6501 436.667 56.0001C423.661 56.1935 413.946 57.1834 407.783 58.947C383.639 65.909 362.33 110.398 362.33 110.785H362.652L362.841 110.845C362.97 110.426 384.228 66.2912 407.921 59.4581C414.038 57.7084 423.712 56.723 436.672 56.5296C460.411 56.1889 490.05 58.9608 507.544 61.6867C513.697 62.6444 519.165 66.2452 522.552 71.5634C528.977 81.652 537.597 104.012 535.002 124.267L535.517 124.336C538.131 103.938 529.456 81.4263 522.989 71.2733C519.519 65.8354 513.918 62.1517 507.622 61.1664Z" fill="black"/>
<path d="M509.672 58.6146C495.064 56.7866 463.152 53.8028 436.196 54.2172C422.679 54.429 412.655 55.4282 406.4 57.1918C382.044 64.0986 359.147 110.079 359.147 110.48H359.456L359.631 110.535C359.764 110.103 382.449 64.4992 406.533 57.6752C412.747 55.9255 422.729 54.9263 436.205 54.7191C463.129 54.3047 495.018 57.2838 509.617 59.1119C516.024 59.913 521.754 63.5322 525.33 69.0484C532.031 79.3764 541.024 102.362 538.336 123.368L538.819 123.433C541.525 102.289 532.477 79.16 525.739 68.7722C522.076 63.1362 516.222 59.4342 509.672 58.6146Z" fill="black"/>
<path d="M529.007 66.8074C524.87 60.5453 518.187 56.8294 509.673 56.065C485.391 53.8779 426.582 49.4345 405.02 55.4388C380.512 62.2674 355.968 109.763 355.968 110.173H356.258L356.419 110.228C356.548 109.818 362.6 98.0124 371.952 85.1243C380.241 73.7004 392.727 59.3527 405.139 55.8993C426.632 49.9088 485.377 54.3521 509.631 56.5393C518.003 57.2944 524.571 60.9366 528.625 67.0791C534.452 75.9014 544.679 98.832 541.655 122.472L542.11 122.532C545.153 98.7445 534.866 75.6804 529.007 66.8074Z" fill="black"/>
<defs>
<linearGradient id="paint0_linear" x1="71.4298" y1="111.196" x2="378.912" y2="111.196" gradientUnits="userSpaceOnUse">
<stop stop-color="white"/>
<stop offset="1"/>
</linearGradient>
<linearGradient id="paint1_linear" x1="400.538" y1="118.404" x2="502.876" y2="118.404" gradientUnits="userSpaceOnUse">
<stop stop-color="white"/>
<stop offset="1"/>
</linearGradient>
</defs>
</svg>
