<svg width="309" height="146" viewBox="0 0 309 146" fill="none" xmlns="http://www.w3.org/2000/svg">
<path d="M308.621 145.531H294.704V14.7273H0.962891V0.807617H308.621V145.531Z" fill="#48B864"/>
<path d="M266.927 143.53H253.01V55.4837H243.138V41.564H266.927V143.53Z" fill="#414042"/>
<path d="M225.861 125.287H211.944V94.3484H0.962891V80.4287H225.861V125.287Z" fill="#D1D3D4"/>
<path d="M218.904 66.8049C207.214 66.8049 197.694 57.2838 197.694 45.5912C197.694 33.8986 207.214 24.3774 218.904 24.3774C230.594 24.3774 240.113 33.8986 240.113 45.5912C240.113 57.2838 230.594 66.8049 218.904 66.8049ZM218.904 38.2972C214.877 38.2972 211.611 41.5637 211.611 45.5912C211.611 49.6186 214.877 52.8851 218.904 52.8851C222.93 52.8851 226.196 49.6186 226.196 45.5912C226.196 41.5637 222.93 38.2972 218.904 38.2972Z" fill="#414042"/>
<path d="M161.102 66.8049C149.411 66.8049 139.892 57.2838 139.892 45.5912C139.892 33.8986 149.411 24.3774 161.102 24.3774C172.792 24.3774 182.311 33.8986 182.311 45.5912C182.311 57.2838 172.81 66.8049 161.102 66.8049ZM161.102 38.2972C157.075 38.2972 153.809 41.5637 153.809 45.5912C153.809 49.6186 157.075 52.8851 161.102 52.8851C165.128 52.8851 168.394 49.6186 168.394 45.5912C168.394 41.5637 165.128 38.2972 161.102 38.2972Z" fill="#414042"/>
<path d="M103.299 66.8049C91.6091 66.8049 82.0898 57.2838 82.0898 45.5912C82.0898 33.8986 91.6091 24.3774 103.299 24.3774C114.99 24.3774 124.509 33.8986 124.509 45.5912C124.509 57.2838 115.008 66.8049 103.299 66.8049ZM103.299 38.2972C99.2727 38.2972 96.0069 41.5637 96.0069 45.5912C96.0069 49.6186 99.2727 52.8851 103.299 52.8851C107.326 52.8851 110.592 49.6186 110.592 45.5912C110.592 41.5637 107.326 38.2972 103.299 38.2972Z" fill="#414042"/>
<path d="M45.4975 66.8049C33.8073 66.8049 24.2881 57.2838 24.2881 45.5912C24.2881 33.8986 33.8073 24.3774 45.4975 24.3774C57.1878 24.3774 66.7069 33.8986 66.7069 45.5912C66.7255 57.2838 57.2063 66.8049 45.4975 66.8049ZM45.4975 38.2972C41.4709 38.2972 38.205 41.5637 38.205 45.5912C38.205 49.6186 41.4709 52.8851 45.4975 52.8851C49.5242 52.8851 52.79 49.6186 52.79 45.5912C52.79 41.5637 49.5242 38.2972 45.4975 38.2972Z" fill="#414042"/>
<path d="M195.504 38.6309H184.5V52.5505H195.504V38.6309Z" fill="#414042"/>
<path d="M137.776 38.6309H126.773V52.5505H137.776V38.6309Z" fill="#414042"/>
<path d="M79.9557 38.6309H68.9707V52.5505H79.9557V38.6309Z" fill="#414042"/>
<path d="M21.7455 38.6309H0.962891V52.5505H21.7455V38.6309Z" fill="#414042"/>
</svg>
