<svg width="68" height="413" viewBox="0 0 68 413" fill="none" xmlns="http://www.w3.org/2000/svg">
<path d="M54.2189 86.5425H40.3018V144.82H54.2189V86.5425Z" fill="#D1D3D4"/>
<path d="M46.6479 189.567C34.9577 189.567 25.4385 180.046 25.4385 168.354C25.4385 156.661 34.9577 147.14 46.6479 147.14C58.3381 147.14 67.8573 156.661 67.8573 168.354C67.8573 180.046 58.3381 189.567 46.6479 189.567ZM46.6479 161.06C42.6213 161.06 39.3554 164.326 39.3554 168.354C39.3554 172.381 42.6213 175.648 46.6479 175.648C50.6745 175.648 53.9404 172.381 53.9404 168.354C53.9404 164.326 50.6745 161.06 46.6479 161.06Z" fill="#D1D3D4"/>
<path d="M46.6479 84.2596C34.9577 84.2596 25.4385 74.7386 25.4385 63.0461C25.4385 51.3536 34.9577 41.8325 46.6479 41.8325C58.3381 41.8325 67.8573 51.3536 67.8573 63.0461C67.8573 74.7386 58.3381 84.2596 46.6479 84.2596ZM46.6479 55.7522C42.6213 55.7522 39.3554 59.0187 39.3554 63.0461C39.3554 67.0735 42.6213 70.34 46.6479 70.34C50.6745 70.34 53.9404 67.0735 53.9404 63.0461C53.9404 59.0187 50.6745 55.7522 46.6479 55.7522Z" fill="#D1D3D4"/>
<path d="M46.6479 295.709C34.9577 295.709 25.4385 286.188 25.4385 274.496C25.4385 262.803 34.9577 253.282 46.6479 253.282C58.3381 253.282 67.8573 262.803 67.8573 274.496C67.8573 286.188 58.3381 295.709 46.6479 295.709ZM46.6479 267.202C42.6213 267.202 39.3554 270.468 39.3554 274.496C39.3554 278.523 42.6213 281.79 46.6479 281.79C50.6745 281.79 53.9404 278.523 53.9404 274.496C53.9404 270.468 50.6745 267.202 46.6479 267.202Z" fill="#D1D3D4"/>
<path d="M46.6479 409.147C34.9577 409.147 25.4385 399.626 25.4385 387.933C25.4385 376.241 34.9577 366.72 46.6479 366.72C58.3381 366.72 67.8573 376.241 67.8573 387.933C67.8573 399.626 58.3381 409.147 46.6479 409.147ZM46.6479 380.639C42.6213 380.639 39.3554 383.906 39.3554 387.933C39.3554 391.961 42.6213 395.227 46.6479 395.227C50.6745 395.227 53.9404 391.961 53.9404 387.933C53.9404 383.906 50.6745 380.639 46.6479 380.639Z" fill="#D1D3D4"/>
<path d="M53.6066 192.796H39.6895V250.35H53.6066V192.796Z" fill="#D1D3D4"/>
<path d="M53.6066 298.253H39.6895V364.696H53.6066V298.253Z" fill="#D1D3D4"/>
<path d="M15 0H0V413H15V0Z" fill="#D1D3D4"/>
</svg>
