<svg width="642" height="1521" viewBox="0 0 642 1521" fill="none" xmlns="http://www.w3.org/2000/svg">
<path d="M478.52 1520.55H464.603V1204.32L437.141 1175.53V1128.54H341.707L192.981 979.448V716.421H206.898V973.695L347.478 1114.62H451.058V1169.96L478.52 1198.75V1520.55Z" fill="#414042"/>
<path d="M465.234 231.366L426.99 193.114H232.468V167.038H246.385V179.195H432.761L475.068 221.511L465.234 231.366Z" fill="#D1D3D4"/>
<path d="M246.385 66H232.468V119.192H246.385V66Z" fill="#D1D3D4"/>
<path d="M288.081 66H274.164V119.192H288.081V66Z" fill="#D1D3D4"/>
<path d="M472.211 280.048L425.58 233.408H191.72V66H205.637V219.488H431.333L482.065 270.212L472.211 280.048Z" fill="#414042"/>
<path d="M168.618 677.223L140.562 649.161V274.573L193.019 222.104L202.854 231.96L154.478 280.345V643.408L178.453 667.387L168.618 677.223Z" fill="#414042"/>
<path d="M194.113 341.406H180.196V276.948L195.802 261.34H428.345L492.604 325.612L482.751 335.448L422.574 275.26H201.573L194.113 282.721V341.406Z" fill="#D1D3D4"/>
<path d="M194.113 388.38H180.196V450.313H194.113V388.38Z" fill="#D1D3D4"/>
<path d="M194.113 497.957H180.196V555.882H194.113V497.957Z" fill="#D1D3D4"/>
<path d="M405.781 731.048L341.132 667.926H197.342L180.196 653.004V603.079H194.113V646.676L202.556 654.007H346.81L415.504 721.081L405.781 731.048Z" fill="#D1D3D4"/>
<path d="M531.386 749.123H513.442V735.203H525.467L613.051 644.428V600.59H626.968V650.052L531.386 749.123Z" fill="#D1D3D4"/>
<path d="M626.97 495.118H613.053V551.614H626.97V495.118Z" fill="#D1D3D4"/>
<path d="M626.97 423.087H613.053V447.586H626.97V423.087Z" fill="#D1D3D4"/>
<path d="M429.162 1304.04C417.471 1304.04 407.952 1294.52 407.952 1282.82C407.952 1271.13 417.471 1261.61 429.162 1261.61C440.852 1261.61 450.371 1271.13 450.371 1282.82C450.371 1294.52 440.87 1304.04 429.162 1304.04ZM429.162 1275.53C425.135 1275.53 421.869 1278.8 421.869 1282.82C421.869 1286.85 425.135 1290.12 429.162 1290.12C433.188 1290.12 436.454 1286.85 436.454 1282.82C436.454 1278.8 433.188 1275.53 429.162 1275.53Z" fill="#D1D3D4"/>
<path d="M429.162 1410.18C417.471 1410.18 407.952 1400.66 407.952 1388.97C407.952 1377.28 417.471 1367.75 429.162 1367.75C440.852 1367.75 450.371 1377.28 450.371 1388.97C450.371 1400.66 440.87 1410.18 429.162 1410.18ZM429.162 1381.67C425.135 1381.67 421.869 1384.94 421.869 1388.97C421.869 1393 425.135 1396.26 429.162 1396.26C433.188 1396.26 436.454 1393 436.454 1388.97C436.454 1384.94 433.188 1381.67 429.162 1381.67Z" fill="#D1D3D4"/>
<path d="M429.162 1520.55C417.471 1520.55 407.952 1511.03 407.952 1499.34C407.952 1487.65 417.471 1478.13 429.162 1478.13C440.852 1478.13 450.371 1487.65 450.371 1499.34C450.371 1511.03 440.87 1520.55 429.162 1520.55ZM429.162 1492.05C425.135 1492.05 421.869 1495.31 421.869 1499.34C421.869 1503.37 425.135 1506.63 429.162 1506.63C433.188 1506.63 436.454 1503.37 436.454 1499.34C436.454 1495.31 433.188 1492.05 429.162 1492.05Z" fill="#D1D3D4"/>
<path d="M620.009 597.252C608.319 597.252 598.8 587.73 598.8 576.038C598.8 564.345 608.319 554.824 620.009 554.824C631.699 554.824 641.219 564.345 641.219 576.038C641.219 587.73 631.718 597.252 620.009 597.252ZM620.009 568.744C615.983 568.744 612.717 572.01 612.717 576.038C612.717 580.065 615.983 583.332 620.009 583.332C624.036 583.332 627.302 580.065 627.302 576.038C627.302 572.01 624.036 568.744 620.009 568.744Z" fill="#D1D3D4"/>
<path d="M431.705 762.078C420.014 762.078 410.495 752.557 410.495 740.864C410.495 729.172 420.014 719.651 431.705 719.651C443.395 719.651 452.914 729.172 452.914 740.864C452.914 752.557 443.413 762.078 431.705 762.078ZM431.705 733.571C427.678 733.571 424.412 736.837 424.412 740.864C424.412 744.892 427.678 748.158 431.705 748.158C435.731 748.158 438.997 744.892 438.997 740.864C438.997 736.837 435.731 733.571 431.705 733.571Z" fill="#D1D3D4"/>
<path d="M404 819.947C392.309 819.947 382.79 810.426 382.79 798.733C382.79 787.041 392.309 777.52 404 777.52C415.69 777.52 425.209 787.041 425.209 798.733C425.209 810.426 415.69 819.947 404 819.947ZM404 791.421C399.973 791.421 396.707 794.687 396.707 798.715C396.707 802.742 399.973 806.009 404 806.009C408.026 806.009 411.292 802.742 411.292 798.715C411.292 794.687 408.026 791.421 404 791.421Z" fill="#D1D3D4"/>
<path d="M488.801 980.414C477.111 980.414 467.592 970.893 467.592 959.2C467.592 947.507 477.111 937.986 488.801 937.986C500.492 937.986 510.011 947.507 510.011 959.2C510.011 970.893 500.492 980.414 488.801 980.414ZM488.801 951.906C484.775 951.906 481.509 955.173 481.509 959.2C481.509 963.227 484.775 966.494 488.801 966.494C492.828 966.494 496.094 963.227 496.094 959.2C496.094 955.173 492.828 951.906 488.801 951.906Z" fill="#D1D3D4"/>
<path d="M488.801 882.4C477.111 882.4 467.592 872.879 467.592 861.186C467.592 849.494 477.111 839.973 488.801 839.973C500.492 839.973 510.011 849.494 510.011 861.186C510.011 872.879 500.492 882.4 488.801 882.4ZM488.801 853.892C484.775 853.892 481.509 857.159 481.509 861.186C481.509 865.214 484.775 868.48 488.801 868.48C492.828 868.48 496.094 865.214 496.094 861.186C496.094 857.159 492.828 853.892 488.801 853.892Z" fill="#D1D3D4"/>
<path d="M187.155 600.703C175.465 600.703 165.945 591.182 165.945 579.49C165.945 567.797 175.465 558.276 187.155 558.276C198.845 558.276 208.364 567.797 208.364 579.49C208.364 591.182 198.845 600.703 187.155 600.703ZM187.155 572.196C183.128 572.196 179.862 575.462 179.862 579.49C179.862 583.517 183.128 586.783 187.155 586.783C191.181 586.783 194.447 583.517 194.447 579.49C194.447 575.462 191.181 572.196 187.155 572.196Z" fill="#D1D3D4"/>
<path d="M190.644 712.339C178.954 712.339 169.435 702.818 169.435 691.126C169.435 679.433 178.954 669.912 190.644 669.912C202.334 669.912 211.853 679.433 211.853 691.126C211.853 702.818 202.334 712.339 190.644 712.339ZM190.644 683.832C186.617 683.832 183.352 687.098 183.352 691.126C183.352 695.153 186.617 698.42 190.644 698.42C194.671 698.42 197.937 695.153 197.937 691.126C197.937 687.098 194.652 683.832 190.644 683.832Z" fill="#414042"/>
<path d="M159.285 869.13C147.594 869.13 138.075 859.608 138.075 847.916C138.075 836.223 147.594 826.702 159.285 826.702C170.975 826.702 180.494 836.223 180.494 847.916C180.494 859.608 170.975 869.13 159.285 869.13ZM159.285 840.622C155.258 840.622 151.992 843.888 151.992 847.916C151.992 851.943 155.258 855.21 159.285 855.21C163.311 855.21 166.577 851.943 166.577 847.916C166.577 843.888 163.311 840.622 159.285 840.622Z" fill="#D1D3D4"/>
<path d="M237.85 816.996C226.16 816.996 216.641 807.475 216.641 795.782C216.641 784.089 226.16 774.568 237.85 774.568C249.54 774.568 259.06 784.089 259.06 795.782C259.06 807.475 249.54 816.996 237.85 816.996ZM237.85 788.488C233.823 788.488 230.558 791.755 230.558 795.782C230.558 799.809 233.823 803.076 237.85 803.076C241.877 803.076 245.143 799.809 245.143 795.782C245.143 791.755 241.858 788.488 237.85 788.488Z" fill="#D1D3D4"/>
<path d="M269.117 760.464C257.426 760.464 247.907 750.943 247.907 739.251C247.907 727.558 257.426 718.037 269.117 718.037C280.807 718.037 290.326 727.558 290.326 739.251C290.326 750.943 280.807 760.464 269.117 760.464ZM269.117 731.938C265.09 731.938 261.824 735.205 261.824 739.232C261.824 743.26 265.09 746.526 269.117 746.526C273.143 746.526 276.409 743.26 276.409 739.232C276.409 735.205 273.143 731.938 269.117 731.938Z" fill="#D1D3D4"/>
<path d="M320.109 760.464C308.419 760.464 298.899 750.943 298.899 739.251C298.899 727.558 308.419 718.037 320.109 718.037C331.799 718.037 341.318 727.558 341.318 739.251C341.318 750.943 331.799 760.464 320.109 760.464ZM320.109 731.938C316.082 731.938 312.816 735.205 312.816 739.232C312.816 743.26 316.082 746.526 320.109 746.526C324.135 746.526 327.401 743.26 327.401 739.232C327.401 735.205 324.135 731.938 320.109 731.938Z" fill="#D1D3D4"/>
<path d="M237.85 922.675C226.16 922.675 216.641 913.154 216.641 901.462C216.641 889.769 226.16 880.248 237.85 880.248C249.54 880.248 259.06 889.769 259.06 901.462C259.06 913.154 249.54 922.675 237.85 922.675ZM237.85 894.168C233.823 894.168 230.558 897.434 230.558 901.462C230.558 905.489 233.823 908.756 237.85 908.756C241.877 908.756 245.143 905.489 245.143 901.462C245.143 897.434 241.858 894.168 237.85 894.168Z" fill="#D1D3D4"/>
<path d="M329.999 1087.17C318.309 1087.17 308.79 1077.65 308.79 1065.95C308.79 1054.26 318.309 1044.74 329.999 1044.74C341.69 1044.74 351.209 1054.26 351.209 1065.95C351.209 1077.65 341.69 1087.17 329.999 1087.17ZM329.999 1058.66C325.973 1058.66 322.707 1061.93 322.707 1065.95C322.707 1069.98 325.973 1073.25 329.999 1073.25C334.026 1073.25 337.292 1069.98 337.292 1065.95C337.292 1061.93 334.008 1058.66 329.999 1058.66Z" fill="#D1D3D4"/>
<path d="M187.155 495.211C175.465 495.211 165.945 485.689 165.945 473.997C165.945 462.304 175.465 452.783 187.155 452.783C198.845 452.783 208.364 462.304 208.364 473.997C208.364 485.689 198.845 495.211 187.155 495.211ZM187.155 466.703C183.128 466.703 179.862 469.969 179.862 473.997C179.862 478.024 183.128 481.291 187.155 481.291C191.181 481.291 194.447 478.024 194.447 473.997C194.447 469.969 191.181 466.703 187.155 466.703Z" fill="#D1D3D4"/>
<path d="M187.155 386.006C175.465 386.006 165.945 376.485 165.945 364.792C165.945 353.1 175.465 343.579 187.155 343.579C198.845 343.579 208.364 353.1 208.364 364.792C208.364 376.485 198.845 386.006 187.155 386.006ZM187.155 357.498C183.128 357.498 179.862 360.765 179.862 364.792C179.862 368.82 183.128 372.086 187.155 372.086C191.181 372.086 194.447 368.82 194.447 364.792C194.447 360.765 191.181 357.498 187.155 357.498Z" fill="#D1D3D4"/>
<path d="M488.801 762.078C477.111 762.078 467.592 752.557 467.592 740.864C467.592 729.172 477.111 719.651 488.801 719.651C500.492 719.651 510.011 729.172 510.011 740.864C510.011 752.557 500.492 762.078 488.801 762.078ZM488.801 733.571C484.775 733.571 481.509 736.837 481.509 740.864C481.509 744.892 484.775 748.158 488.801 748.158C492.828 748.158 496.094 744.892 496.094 740.864C496.094 736.837 492.828 733.571 488.801 733.571Z" fill="#D1D3D4"/>
<path d="M620.009 492.593C608.319 492.593 598.8 483.072 598.8 471.38C598.8 459.687 608.319 450.166 620.009 450.166C631.699 450.166 641.219 459.687 641.219 471.38C641.219 483.072 631.718 492.593 620.009 492.593ZM620.009 464.086C615.983 464.086 612.717 467.352 612.717 471.38C612.717 475.407 615.983 478.674 620.009 478.674C624.036 478.674 627.302 475.407 627.302 471.38C627.302 467.352 624.036 464.086 620.009 464.086Z" fill="#D1D3D4"/>
<path d="M239.427 164.2C227.737 164.2 218.218 154.679 218.218 142.986C218.218 131.294 227.737 121.772 239.427 121.772C251.117 121.772 260.637 131.294 260.637 142.986C260.637 154.679 251.117 164.2 239.427 164.2ZM239.427 135.692C235.401 135.692 232.135 138.959 232.135 142.986C232.135 147.014 235.401 150.28 239.427 150.28C243.454 150.28 246.72 147.014 246.72 142.986C246.72 138.959 243.454 135.692 239.427 135.692Z" fill="#D1D3D4"/>
<path d="M295.559 164.2C283.869 164.2 274.35 154.679 274.35 142.986C274.35 131.294 283.869 121.772 295.559 121.772C307.249 121.772 316.769 131.294 316.769 142.986C316.769 154.679 307.268 164.2 295.559 164.2ZM295.559 135.692C291.532 135.692 288.267 138.959 288.267 142.986C288.267 147.014 291.532 150.28 295.559 150.28C299.586 150.28 302.852 147.014 302.852 142.986C302.852 138.959 299.586 135.692 295.559 135.692Z" fill="#D1D3D4"/>
<path d="M351.708 164.2C340.018 164.2 330.499 154.679 330.499 142.986C330.499 131.294 340.018 121.772 351.708 121.772C363.399 121.772 372.918 131.294 372.918 142.986C372.918 154.679 363.399 164.2 351.708 164.2ZM351.708 135.692C347.682 135.692 344.416 138.959 344.416 142.986C344.416 147.014 347.682 150.28 351.708 150.28C355.735 150.28 359.001 147.014 359.001 142.986C359.001 138.959 355.735 135.692 351.708 135.692Z" fill="#D1D3D4"/>
<path d="M407.84 164.2C396.15 164.2 386.631 154.679 386.631 142.986C386.631 131.294 396.15 121.772 407.84 121.772C419.531 121.772 429.05 131.294 429.05 142.986C429.05 154.679 419.549 164.2 407.84 164.2ZM407.84 135.692C403.814 135.692 400.548 138.959 400.548 142.986C400.548 147.014 403.814 150.28 407.84 150.28C411.867 150.28 415.133 147.014 415.133 142.986C415.133 138.959 411.867 135.692 407.84 135.692Z" fill="#D1D3D4"/>
<path d="M465.216 735.205H455.215V749.124H465.216V735.205Z" fill="#D1D3D4"/>
<path d="M166.244 823.511H152.327V702.799L100.593 651.055L110.427 641.2L166.244 697.027V823.511Z" fill="#D1D3D4"/>
<path d="M436.121 1258.75H422.204V1209.51L398.285 1185.57V1169.76H341.189L152.326 975.606V872.322H166.243V969.946L347.071 1155.84H412.202V1179.82L436.121 1203.74V1258.75Z" fill="#D1D3D4"/>
<path d="M344.287 1520.56H330.37V1205.58L111.187 979.802V709.611L0 605.678L9.50064 595.507L125.104 703.58V974.16L344.287 1199.94V1520.56Z" fill="#D1D3D4"/>
<path d="M436.119 1307.27H422.202V1364.82H436.119V1307.27Z" fill="#D1D3D4"/>
<path d="M436.119 1412.72H422.202V1475.38H436.119V1412.72Z" fill="#D1D3D4"/>
<path d="M244.809 732.327H230.892V772.267H244.809V732.327Z" fill="#D1D3D4"/>
<path d="M244.809 819.873H230.892V877.407H244.809V819.873Z" fill="#D1D3D4"/>
<path d="M306.563 1055.54L230.892 979.876V925.459H244.809V974.104L316.397 1045.71L306.563 1055.54Z" fill="#D1D3D4"/>
<path d="M448.553 1093.46H348.388V1079.54H442.782L489.023 1033.31L498.858 1043.14L448.553 1093.46Z" fill="#D1D3D4"/>
<path d="M351.89 737.242L342.05 747.084L381.767 786.809L391.607 776.967L351.89 737.242Z" fill="#D1D3D4"/>
<path d="M495.759 838.508H481.842V833.366H432.02L417.472 818.816L427.306 808.979L437.79 819.447H495.759V838.508Z" fill="#D1D3D4"/>
<path d="M495.759 884.87H481.842V935.816H495.759V884.87Z" fill="#D1D3D4"/>
<rect x="114" width="322" height="191" fill="url(#paint0_linear)"/>
<defs>
<linearGradient id="paint0_linear" x1="275" y1="34.5" x2="275" y2="191" gradientUnits="userSpaceOnUse">
<stop offset="0.295055" stop-color="white"/>
<stop offset="1" stop-color="white" stop-opacity="0"/>
</linearGradient>
</defs>
</svg>
