<svg width="153" height="392" viewBox="0 0 153 392" fill="none" xmlns="http://www.w3.org/2000/svg">
<path d="M152.276 0.0878906H138.359V391H152.276V0.0878906Z" fill="#D1D3D4"/>
<path d="M109.003 0.0874023H95.0859V78.6689H109.003V0.0874023Z" fill="#D1D3D4"/>
<path d="M109.003 125.068H95.0859V185.517H109.003V125.068Z" fill="#D1D3D4"/>
<path d="M109.003 232.007H95.0859V291.677H109.003V232.007Z" fill="#D1D3D4"/>
<path d="M109.003 339H95.0859V390.999H109.003V339Z" fill="#D1D3D4"/>
<path d="M28.1934 72.3945H14.2764V130.802H28.1934V72.3945Z" fill="#D1D3D4"/>
<path d="M28.1934 178.5H14.2764V239.041H28.1934V178.5Z" fill="#D1D3D4"/>
<path d="M28.1934 285.775H14.2764V346.206H28.1934V285.775Z" fill="#D1D3D4"/>
<path d="M28.1934 0.0874023H14.2764V24.5862H28.1934V0.0874023Z" fill="#D1D3D4"/>
<path d="M69.2195 0.0878906H55.3027V391H69.2195V0.0878906Z" fill="#48B864"/>
<path d="M21.2349 391.399C9.54459 391.399 0.0253906 381.878 0.0253906 370.185C0.0253906 358.493 9.54459 348.972 21.2349 348.972C32.9251 348.972 42.4443 358.493 42.4443 370.185C42.4443 381.878 32.9251 391.399 21.2349 391.399ZM21.2349 362.891C17.2082 362.891 13.9424 366.158 13.9424 370.185C13.9424 374.213 17.2082 377.479 21.2349 377.479C25.2615 377.479 28.5274 374.213 28.5274 370.185C28.5274 366.158 25.2615 362.891 21.2349 362.891Z" fill="#D1D3D4"/>
<path d="M21.2349 283.584C9.54459 283.584 0.0253906 274.063 0.0253906 262.371C0.0253906 250.678 9.54459 241.157 21.2349 241.157C32.9251 241.157 42.4443 250.678 42.4443 262.371C42.4443 274.063 32.9251 283.584 21.2349 283.584ZM21.2349 255.077C17.2082 255.077 13.9424 258.343 13.9424 262.371C13.9424 266.398 17.2082 269.665 21.2349 269.665C25.2615 269.665 28.5274 266.398 28.5274 262.371C28.5274 258.343 25.2615 255.077 21.2349 255.077Z" fill="#D1D3D4"/>
<path d="M21.2349 175.792C9.54459 175.792 0.0253906 166.271 0.0253906 154.578C0.0253906 142.886 9.54459 133.365 21.2349 133.365C32.9251 133.365 42.4443 142.886 42.4443 154.578C42.4443 166.271 32.9251 175.792 21.2349 175.792ZM21.2349 147.284C17.2082 147.284 13.9424 150.551 13.9424 154.578C13.9424 158.606 17.2082 161.872 21.2349 161.872C25.2615 161.872 28.5274 158.606 28.5274 154.578C28.5274 150.551 25.2615 147.284 21.2349 147.284Z" fill="#D1D3D4"/>
<path d="M102.045 122.915C90.3552 122.915 80.8359 113.394 80.8359 101.701C80.8359 90.0089 90.3552 80.4878 102.045 80.4878C113.736 80.4878 123.255 90.0089 123.255 101.701C123.255 113.394 113.754 122.915 102.045 122.915ZM102.045 94.4075C98.0188 94.4075 94.7529 97.674 94.7529 101.701C94.7529 105.729 98.0188 108.995 102.045 108.995C106.072 108.995 109.338 105.729 109.338 101.701C109.338 97.674 106.072 94.4075 102.045 94.4075Z" fill="#D1D3D4"/>
<path d="M102.045 229.891C90.3552 229.891 80.8359 220.37 80.8359 208.678C80.8359 196.985 90.3552 187.464 102.045 187.464C113.736 187.464 123.255 196.985 123.255 208.678C123.255 220.37 113.754 229.891 102.045 229.891ZM102.045 201.384C98.0188 201.384 94.7529 204.65 94.7529 208.678C94.7529 212.705 98.0188 215.972 102.045 215.972C106.072 215.972 109.338 212.705 109.338 208.678C109.338 204.65 106.072 201.384 102.045 201.384Z" fill="#D1D3D4"/>
<path d="M102.045 336.275C90.3552 336.275 80.8359 326.754 80.8359 315.062C80.8359 303.369 90.3552 293.848 102.045 293.848C113.736 293.848 123.255 303.369 123.255 315.062C123.255 326.754 113.754 336.275 102.045 336.275ZM102.045 307.768C98.0188 307.768 94.7529 311.034 94.7529 315.062C94.7529 319.089 98.0188 322.356 102.045 322.356C106.072 322.356 109.338 319.089 109.338 315.062C109.338 311.034 106.072 307.768 102.045 307.768Z" fill="#D1D3D4"/>
<path d="M21.2349 69.833C9.54459 69.833 0.0253906 60.3119 0.0253906 48.6194C0.0253906 36.9269 9.54459 27.4058 21.2349 27.4058C32.9251 27.4058 42.4443 36.9269 42.4443 48.6194C42.4443 60.3119 32.9251 69.833 21.2349 69.833ZM21.2349 41.3255C17.2082 41.3255 13.9424 44.592 13.9424 48.6194C13.9424 52.6468 17.2082 55.9133 21.2349 55.9133C25.2615 55.9133 28.5274 52.6468 28.5274 48.6194C28.5274 44.592 25.2615 41.3255 21.2349 41.3255Z" fill="#D1D3D4"/>
</svg>
