<svg width="1300" height="1431" viewBox="0 0 1300 1431" fill="none" xmlns="http://www.w3.org/2000/svg">
<path d="M131.419 714.755H117.785V1429.69H131.419V714.755Z" fill="#48B864"/>
<path d="M222.656 1423.73H209.022V1180.5L259.74 1146.46V1065.78H273.374V1153.73L222.656 1187.77V1423.73Z" fill="black"/>
<path d="M391.771 161.862L354.305 124.439H163.74V98.8976H177.374V110.815H359.959L401.406 152.234L391.771 161.862Z" fill="#D1D3D4"/>
<path d="M177.374 0H163.74V52.0648H177.374V0Z" fill="#D1D3D4"/>
<path d="M218.221 0H204.587V52.0648H218.221V0Z" fill="#D1D3D4"/>
<path d="M398.606 209.513L352.924 163.861H123.82V0H137.454V150.236H358.577L408.259 199.884L398.606 209.513Z" fill="#48B864"/>
<path d="M101.188 598.273L73.7021 570.805V204.154L125.093 152.815L134.727 162.444L87.336 209.803V565.173L110.823 588.644L101.188 598.273Z" fill="#48B864"/>
<path d="M126.165 269.571H112.531V206.479L127.819 191.201H355.632L418.584 254.111L408.932 263.739L349.979 204.826H133.473L126.165 212.129V269.571Z" fill="#D1D3D4"/>
<path d="M126.165 315.549H112.531V376.171H126.165V315.549Z" fill="#D1D3D4"/>
<path d="M126.165 422.822H112.531V479.519H126.165V422.822Z" fill="#D1D3D4"/>
<path d="M129.328 589.189L112.531 574.565V525.698H126.165V568.371L134.418 575.546L332.818 575.02L332.855 588.644L129.328 589.189Z" fill="#D1D3D4"/>
<path d="M550.216 588.481L444.835 588.227L444.871 574.602L536.582 574.82V523.264H550.216V588.481Z" fill="#D1D3D4"/>
<path d="M550.215 420.024H536.581V475.323H550.215V420.024Z" fill="#D1D3D4"/>
<path d="M550.215 349.521H536.581V373.5H550.215V349.521Z" fill="#D1D3D4"/>
<path d="M652.36 732.54C640.908 732.54 631.582 723.221 631.582 711.776C631.582 700.331 640.908 691.012 652.36 691.012C663.812 691.012 673.138 700.331 673.138 711.776C673.138 723.221 663.812 732.54 652.36 732.54ZM652.36 704.637C648.415 704.637 645.216 707.834 645.216 711.776C645.216 715.718 648.415 718.915 652.36 718.915C656.305 718.915 659.504 715.718 659.504 711.776C659.504 707.834 656.305 704.637 652.36 704.637Z" fill="#D1D3D4"/>
<path d="M652.36 627.012C640.908 627.012 631.582 617.692 631.582 606.248C631.582 594.803 640.908 585.483 652.36 585.483C663.812 585.483 673.138 594.803 673.138 606.248C673.138 617.692 663.812 627.012 652.36 627.012ZM652.36 599.108C648.415 599.108 645.216 602.305 645.216 606.248C645.216 610.19 648.415 613.387 652.36 613.387C656.305 613.387 659.504 610.19 659.504 606.248C659.504 602.305 656.305 599.108 652.36 599.108Z" fill="#D1D3D4"/>
<path d="M652.36 521.501C640.908 521.501 631.582 512.182 631.582 500.737C631.582 489.293 640.908 479.973 652.36 479.973C663.812 479.973 673.138 489.293 673.138 500.737C673.138 512.182 663.812 521.501 652.36 521.501ZM652.36 493.598C648.415 493.598 645.216 496.795 645.216 500.737C645.216 504.679 648.415 507.877 652.36 507.877C656.305 507.877 659.504 504.679 659.504 500.737C659.504 496.795 656.305 493.598 652.36 493.598Z" fill="#D1D3D4"/>
<path d="M543.398 519.994C531.946 519.994 522.62 510.674 522.62 499.23C522.62 487.785 531.946 478.465 543.398 478.465C554.851 478.465 564.176 487.785 564.176 499.23C564.176 510.674 554.869 519.994 543.398 519.994ZM543.398 492.09C539.453 492.09 536.254 495.287 536.254 499.23C536.254 503.172 539.453 506.369 543.398 506.369C547.343 506.369 550.542 503.172 550.542 499.23C550.542 495.287 547.343 492.09 543.398 492.09Z" fill="#D1D3D4"/>
<path d="M358.923 608.664C347.47 608.664 338.145 599.344 338.145 587.9C338.145 576.455 347.47 567.135 358.923 567.135C370.375 567.135 379.701 576.455 379.701 587.9C379.701 599.344 370.393 608.664 358.923 608.664ZM358.923 580.76C354.978 580.76 351.778 583.957 351.778 587.9C351.778 591.842 354.978 595.039 358.923 595.039C362.867 595.039 366.067 591.842 366.067 587.9C366.067 583.957 362.867 580.76 358.923 580.76Z" fill="#D1D3D4"/>
<path d="M119.348 523.373C107.896 523.373 98.5703 514.053 98.5703 502.609C98.5703 491.164 107.896 481.844 119.348 481.844C130.801 481.844 140.126 491.164 140.126 502.609C140.126 514.053 130.801 523.373 119.348 523.373ZM119.348 495.469C115.404 495.469 112.204 498.666 112.204 502.609C112.204 506.551 115.404 509.748 119.348 509.748C123.293 509.748 126.492 506.551 126.492 502.609C126.492 498.666 123.293 495.469 119.348 495.469Z" fill="#D1D3D4"/>
<path d="M123.602 709.287C112.15 709.287 102.824 699.968 102.824 688.523C102.824 677.078 112.15 667.759 123.602 667.759C135.055 667.759 144.38 677.078 144.38 688.523C144.38 699.968 135.073 709.287 123.602 709.287ZM123.602 681.384C119.658 681.384 116.458 684.581 116.458 688.523C116.458 692.465 119.658 695.662 123.602 695.662C127.547 695.662 130.746 692.465 130.746 688.523C130.746 684.581 127.547 681.384 123.602 681.384Z" fill="#48B864"/>
<path d="M267.085 1060.44C255.632 1060.44 246.307 1051.12 246.307 1039.68C246.307 1028.23 255.632 1018.91 267.085 1018.91C278.537 1018.91 287.863 1028.23 287.863 1039.68C287.863 1051.12 278.555 1060.44 267.085 1060.44ZM267.085 1032.54C263.14 1032.54 259.941 1035.74 259.941 1039.68C259.941 1043.62 263.14 1046.82 267.085 1046.82C271.029 1046.82 274.229 1043.62 274.229 1039.68C274.229 1035.74 271.029 1032.54 267.085 1032.54Z" fill="black"/>
<path d="M369.721 864.773C358.269 864.773 348.943 855.454 348.943 844.009C348.943 832.564 358.269 823.245 369.721 823.245C381.174 823.245 390.499 832.564 390.499 844.009C390.499 855.454 381.174 864.773 369.721 864.773ZM369.721 836.869C365.777 836.869 362.577 840.067 362.577 844.009C362.577 847.951 365.777 851.148 369.721 851.148C373.666 851.148 376.866 847.951 376.866 844.009C376.866 840.067 373.648 836.869 369.721 836.869Z" fill="#545453"/>
<path d="M119.348 420.115C107.896 420.115 98.5703 410.796 98.5703 399.351C98.5703 387.906 107.896 378.587 119.348 378.587C130.801 378.587 140.126 387.906 140.126 399.351C140.126 410.796 130.801 420.115 119.348 420.115ZM119.348 392.212C115.404 392.212 112.204 395.409 112.204 399.351C112.204 403.293 115.404 406.49 119.348 406.49C123.293 406.49 126.492 403.293 126.492 399.351C126.492 395.409 123.293 392.212 119.348 392.212Z" fill="#D1D3D4"/>
<path d="M119.348 313.224C107.896 313.224 98.5703 303.905 98.5703 292.46C98.5703 281.015 107.896 271.696 119.348 271.696C130.801 271.696 140.126 281.015 140.126 292.46C140.126 303.905 130.801 313.224 119.348 313.224ZM119.348 285.321C115.404 285.321 112.204 288.518 112.204 292.46C112.204 296.402 115.404 299.6 119.348 299.6C123.293 299.6 126.492 296.402 126.492 292.46C126.492 288.518 123.293 285.321 119.348 285.321Z" fill="#D1D3D4"/>
<path d="M414.858 608.664C403.406 608.664 394.08 599.344 394.08 587.9C394.08 576.455 403.406 567.135 414.858 567.135C426.311 567.135 435.636 576.455 435.636 587.9C435.636 599.344 426.311 608.664 414.858 608.664ZM414.858 580.76C410.913 580.76 407.714 583.957 407.714 587.9C407.714 591.842 410.913 595.039 414.858 595.039C418.803 595.039 422.002 591.842 422.002 587.9C422.002 583.957 418.803 580.76 414.858 580.76Z" fill="#D1D3D4"/>
<path d="M543.398 417.554C531.946 417.554 522.62 408.234 522.62 396.79C522.62 385.345 531.946 376.025 543.398 376.025C554.851 376.025 564.176 385.345 564.176 396.79C564.176 408.234 554.869 417.554 543.398 417.554ZM543.398 389.65C539.453 389.65 536.254 392.847 536.254 396.79C536.254 400.732 539.453 403.929 543.398 403.929C547.343 403.929 550.542 400.732 550.542 396.79C550.542 392.847 547.343 389.65 543.398 389.65Z" fill="#D1D3D4"/>
<path d="M170.557 96.1182C159.105 96.1182 149.779 86.7989 149.779 75.3541C149.779 63.9093 159.105 54.59 170.557 54.59C182.01 54.59 191.335 63.9093 191.335 75.3541C191.335 86.7989 182.01 96.1182 170.557 96.1182ZM170.557 68.2147C166.613 68.2147 163.413 71.412 163.413 75.3541C163.413 79.2962 166.613 82.4935 170.557 82.4935C174.502 82.4935 177.701 79.2962 177.701 75.3541C177.701 71.412 174.502 68.2147 170.557 68.2147Z" fill="#D1D3D4"/>
<path d="M225.548 96.1182C214.095 96.1182 204.77 86.7989 204.77 75.3541C204.77 63.9093 214.095 54.59 225.548 54.59C237 54.59 246.326 63.9093 246.326 75.3541C246.326 86.7989 237.018 96.1182 225.548 96.1182ZM225.548 68.2147C221.603 68.2147 218.403 71.412 218.403 75.3541C218.403 79.2962 221.603 82.4935 225.548 82.4935C229.492 82.4935 232.692 79.2962 232.692 75.3541C232.692 71.412 229.492 68.2147 225.548 68.2147Z" fill="#D1D3D4"/>
<path d="M280.555 96.1182C269.103 96.1182 259.777 86.7989 259.777 75.3541C259.777 63.9093 269.103 54.59 280.555 54.59C292.008 54.59 301.333 63.9093 301.333 75.3541C301.333 86.7989 292.008 96.1182 280.555 96.1182ZM280.555 68.2147C276.611 68.2147 273.411 71.412 273.411 75.3541C273.411 79.2962 276.611 82.4935 280.555 82.4935C284.5 82.4935 287.7 79.2962 287.7 75.3541C287.7 71.412 284.5 68.2147 280.555 68.2147Z" fill="#D1D3D4"/>
<path d="M335.546 96.1182C324.093 96.1182 314.768 86.7989 314.768 75.3541C314.768 63.9093 324.093 54.59 335.546 54.59C346.998 54.59 356.324 63.9093 356.324 75.3541C356.324 86.7989 347.016 96.1182 335.546 96.1182ZM335.546 68.2147C331.601 68.2147 328.401 71.412 328.401 75.3541C328.401 79.2962 331.601 82.4935 335.546 82.4935C339.49 82.4935 342.69 79.2962 342.69 75.3541C342.69 71.412 339.49 68.2147 335.546 68.2147Z" fill="#D1D3D4"/>
<path d="M1076.23 1046.76C1064.78 1046.76 1055.45 1037.44 1055.45 1026C1055.45 1014.55 1064.78 1005.24 1076.23 1005.24C1087.68 1005.24 1097.01 1014.55 1097.01 1026C1097.01 1037.44 1087.68 1046.76 1076.23 1046.76ZM1076.23 1018.86C1072.28 1018.86 1069.08 1022.06 1069.08 1026C1069.08 1029.94 1072.28 1033.14 1076.23 1033.14C1080.17 1033.14 1083.37 1029.94 1083.37 1026C1083.37 1022.06 1080.17 1018.86 1076.23 1018.86Z" fill="#D1D3D4"/>
<path d="M652.36 417.79C640.908 417.79 631.582 408.47 631.582 397.026C631.582 385.581 640.908 376.261 652.36 376.261C663.812 376.261 673.138 385.581 673.138 397.026C673.138 408.47 663.812 417.79 652.36 417.79ZM652.36 389.886C648.415 389.886 645.216 393.084 645.216 397.026C645.216 400.968 648.415 404.165 652.36 404.165C656.305 404.165 659.504 400.968 659.504 397.026C659.504 393.084 656.305 389.886 652.36 389.886Z" fill="#D1D3D4"/>
<path d="M391.753 582.359H381.955V595.984H391.753V582.359Z" fill="#D1D3D4"/>
<path d="M96.9524 1431H83.3185V951.245L44.9256 893.748V629.973L-64 528.241L-54.6926 518.286L58.5594 624.069V889.625L96.9524 947.103V1431Z" fill="#D1D3D4"/>
<path d="M321.166 1427.53H307.532V1019.39L362.904 969.048V869.95H376.538V975.061L321.166 1025.42V1427.53Z" fill="#545454"/>
<path d="M1176.15 379.859L1023.58 227.407H855.613V213.782H1029.24L1031.24 215.762L1185.79 370.23L1176.15 379.859Z" fill="#48B864"/>
<path d="M1209.6 651.482H1195.97V1078.66H1209.6V651.482Z" fill="#48B864"/>
<path d="M1249.52 651.482H1235.89V1078.66H1249.52V651.482Z" fill="#D1D3D4"/>
<path d="M1164.12 1069.38H1150.49V894.366H862.722V880.741H1164.12V1069.38Z" fill="#48B864"/>
<path d="M1083.04 1002.58H1069.41V972.3H862.722V958.675H1083.04V1002.58Z" fill="#D1D3D4"/>
<path d="M1043.43 1073.18H1029.8V1017.44H862.722V1003.82H1043.43V1073.18Z" fill="#D1D3D4"/>
<path d="M864.43 1276.91H761.54V1075.52L798.315 1044.02H1001.35V1073.4H987.717V1057.65H803.369L775.174 1081.79V1263.29H864.43V1276.91Z" fill="#D1D3D4"/>
<path d="M691.625 1424.17H677.991V1080.53L720.074 1037.26L729.854 1046.76L691.625 1086.06V1424.17Z" fill="#D1D3D4"/>
<path d="M651.761 1042.02H638.127V1424.17H651.761V1042.02Z" fill="#D1D3D4"/>
<path d="M659.177 420.297H645.543V477.466H659.177V420.297Z" fill="#D1D3D4"/>
<path d="M659.177 524.154H645.543V583.412H659.177V524.154Z" fill="#D1D3D4"/>
<path d="M659.177 629.155H645.543V688.305H659.177V629.155Z" fill="#D1D3D4"/>
<path d="M659.177 735.229H645.543V753.05H659.177V735.229Z" fill="#D1D3D4"/>
<path d="M1083 1051H1069V1073H1083V1051Z" fill="#D1D3D4"/>
<path d="M659.177 349.521H645.543V373.5H659.177V349.521Z" fill="#D1D3D4"/>
<path d="M699.37 349.521H685.736V753.05H699.37V349.521Z" fill="#D1D3D4"/>
<path d="M1180.83 1354.48H1167.19V1421.9H1180.83V1354.48Z" fill="#48B864"/>
<path d="M1301.5 1423.73H1287.86V1105.89L1303.6 1075.76V460.39L1419.35 344.707L1429 354.353L1317.24 466.04V1079.1L1301.5 1109.24V1423.73Z" fill="#D1D3D4"/>
<path d="M115.186 640.146H131.692V643.271L121.675 651.5H131.692V655.26H115.186V652.099L125.202 643.906H115.186V640.146ZM115.186 636.24V628.756C115.186 626.957 115.531 625.395 116.222 624.014C116.894 622.634 117.858 621.562 119.094 620.817C120.33 620.054 121.784 619.654 123.439 619.654C125.093 619.654 126.529 620.036 127.783 620.817C129.019 621.562 129.983 622.634 130.692 624.014C131.364 625.377 131.71 626.957 131.71 628.756V636.24H115.186ZM128.547 628.937C128.547 627.284 128.092 625.976 127.183 624.995C126.256 624.014 125.002 623.505 123.439 623.505C121.875 623.505 120.621 623.996 119.712 624.995C118.785 625.976 118.312 627.284 118.312 628.937V632.425H128.547V628.937ZM123.111 604.667C123.402 603.722 123.911 602.978 124.62 602.451C125.311 601.924 126.165 601.651 127.183 601.651C128.638 601.651 129.747 602.215 130.528 603.341C131.292 604.449 131.692 606.084 131.692 608.246V616.766H115.186V608.7C115.186 606.683 115.567 605.157 116.349 604.086C117.112 602.996 118.167 602.469 119.476 602.469C120.276 602.469 120.984 602.669 121.621 603.05C122.239 603.45 122.748 603.977 123.111 604.667ZM118.058 612.987H121.948V609.19C121.948 608.246 121.784 607.537 121.457 607.047C121.13 606.556 120.639 606.32 120.003 606.32C119.367 606.32 118.876 606.556 118.567 607.047C118.24 607.537 118.076 608.246 118.076 609.19V612.987H118.058ZM128.801 608.536C128.801 607.537 128.638 606.774 128.31 606.284C127.983 605.757 127.474 605.503 126.783 605.503C125.42 605.503 124.729 606.52 124.729 608.536V612.987H128.801V608.536Z" fill="black"/>
<path d="M258.323 1008.09V1004.15H272.139V995.607H275.357V1008.09H258.323ZM258.323 993.409V989.467H275.357V993.409H258.323ZM266.976 986.197V979.312H270.012V986.197H266.976ZM258.323 976.06V972.118H275.357V976.06H258.323ZM275.629 959.837C275.629 961.6 275.247 963.198 274.484 964.633C273.72 966.05 272.666 967.159 271.339 967.958C269.994 968.757 268.485 969.157 266.813 969.157C265.14 969.157 263.65 968.757 262.304 967.958C260.959 967.14 259.905 966.032 259.141 964.633C258.378 963.198 257.996 961.618 257.996 959.837C257.996 958.075 258.378 956.477 259.141 955.078C259.905 953.661 260.959 952.553 262.304 951.753C263.631 950.936 265.14 950.536 266.813 950.536C268.485 950.536 269.994 950.936 271.339 951.753C272.666 952.571 273.72 953.679 274.484 955.078C275.247 956.495 275.629 958.075 275.629 959.837ZM272.284 959.837C272.284 958.838 272.048 957.93 271.612 957.113C271.139 956.295 270.485 955.677 269.667 955.223C268.83 954.751 267.903 954.515 266.849 954.515C265.795 954.515 264.849 954.751 264.031 955.223C263.195 955.677 262.559 956.313 262.104 957.113C261.632 957.93 261.395 958.838 261.395 959.837C261.395 960.837 261.632 961.745 262.104 962.562C262.559 963.38 263.195 964.016 264.031 964.488C264.868 964.942 265.795 965.16 266.849 965.16C267.903 965.16 268.849 964.924 269.667 964.488C270.503 964.016 271.139 963.38 271.612 962.562C272.048 961.745 272.284 960.837 272.284 959.837ZM258.323 931.952H275.357V935.186L265.013 943.669H275.357V947.557H258.323V944.305L268.667 935.84H258.323V931.952Z" fill="black"/>
<path d="M379.574 807.313C379.574 808.457 379.428 809.583 379.119 810.655C378.792 811.727 378.392 812.581 377.901 813.235L375.374 812.09C375.829 811.473 376.192 810.728 376.483 809.874C376.756 809.02 376.901 808.167 376.901 807.295C376.901 806.332 376.756 805.641 376.483 805.169C376.192 804.715 375.811 804.479 375.338 804.479C374.993 804.479 374.702 804.624 374.484 804.897C374.247 805.151 374.066 805.496 373.92 805.932C373.775 806.35 373.629 806.913 373.466 807.64C373.211 808.748 372.938 809.656 372.684 810.365C372.429 811.073 371.993 811.673 371.411 812.199C370.83 812.69 370.048 812.944 369.085 812.944C368.248 812.944 367.485 812.708 366.794 812.254C366.103 811.8 365.558 811.109 365.158 810.201C364.758 809.275 364.558 808.148 364.558 806.822C364.558 805.896 364.667 804.987 364.885 804.097C365.104 803.207 365.431 802.444 365.849 801.772L368.412 802.807C367.649 804.152 367.267 805.496 367.267 806.84C367.267 807.785 367.412 808.475 367.721 808.93C368.03 809.365 368.43 809.602 368.921 809.602C369.412 809.602 369.794 809.347 370.048 808.839C370.284 808.312 370.521 807.512 370.757 806.459C371.012 805.351 371.284 804.442 371.539 803.734C371.793 803.025 372.211 802.426 372.793 801.935C373.357 801.427 374.138 801.172 375.102 801.172C375.938 801.172 376.701 801.409 377.392 801.881C378.065 802.335 378.61 803.025 379.01 803.952C379.355 804.86 379.574 805.987 379.574 807.313ZM364.776 798.847V795.486H379.319V798.847H364.776ZM364.776 792.035V788.674H376.574V781.389H379.319V792.035H364.776ZM364.776 766.566L379.319 772.851V776.176L364.776 782.443V778.81L375.156 774.395L364.776 769.908V766.566ZM376.611 754.103H379.319V765.348H364.776V754.376H367.485V762.006H370.648V755.266H373.266V762.006H376.629V754.103H376.611ZM379.319 742.168L375.265 744.966V745.129V748.054H379.319V751.415H364.776V745.129C364.776 743.839 364.994 742.731 365.413 741.787C365.849 740.824 366.449 740.097 367.249 739.589C368.03 739.08 368.976 738.826 370.048 738.826C371.121 738.826 372.066 739.08 372.848 739.607C373.629 740.115 374.211 740.86 374.629 741.805L379.301 738.553V742.168H379.319ZM370.048 742.241C369.23 742.241 368.612 742.495 368.176 743.022C367.739 743.549 367.503 744.312 367.503 745.329V748.072H372.575V745.329C372.575 744.312 372.357 743.549 371.902 743.022C371.484 742.495 370.848 742.241 370.048 742.241ZM379.574 723.257C379.574 724.765 379.246 726.127 378.592 727.344C377.938 728.543 377.047 729.488 375.92 730.197C374.775 730.869 373.484 731.214 372.066 731.214C370.648 731.214 369.357 730.869 368.23 730.197C367.085 729.506 366.176 728.562 365.522 727.344C364.867 726.127 364.54 724.765 364.54 723.257C364.54 721.749 364.867 720.387 365.522 719.188C366.176 717.989 367.067 717.044 368.23 716.336C369.357 715.645 370.648 715.3 372.066 715.3C373.484 715.3 374.775 715.645 375.92 716.336C377.047 717.026 377.956 717.971 378.592 719.188C379.246 720.387 379.574 721.749 379.574 723.257ZM376.701 723.257C376.701 722.403 376.501 721.622 376.12 720.932C375.72 720.241 375.156 719.696 374.465 719.315C373.757 718.915 372.957 718.715 372.048 718.715C371.139 718.715 370.339 718.915 369.63 719.315C368.921 719.696 368.376 720.241 367.994 720.932C367.594 721.622 367.394 722.403 367.394 723.257C367.394 724.111 367.594 724.892 367.994 725.582C368.376 726.273 368.921 726.818 369.63 727.217C370.339 727.599 371.139 727.799 372.048 727.799C372.957 727.799 373.757 727.599 374.465 727.217C375.174 726.818 375.72 726.273 376.12 725.582C376.501 724.892 376.701 724.111 376.701 723.257ZM379.319 704.164L374.266 707.67L379.319 711.122V714.973L371.92 709.596L364.776 714.701V710.886L369.485 707.543L364.776 704.273V700.64L371.793 705.708L379.319 700.295V704.164ZM364.776 698.969V695.608H379.319V698.969H364.776ZM364.776 692.156V685.562C364.776 683.981 365.085 682.601 365.685 681.384C366.285 680.166 367.121 679.222 368.212 678.568C369.303 677.896 370.575 677.55 372.03 677.55C373.484 677.55 374.756 677.896 375.847 678.568C376.938 679.24 377.792 680.166 378.41 681.384C379.01 682.583 379.301 683.981 379.301 685.562V692.156H364.776ZM376.556 685.725C376.556 684.272 376.156 683.109 375.356 682.256C374.538 681.384 373.447 680.948 372.048 680.948C370.648 680.948 369.575 681.384 368.776 682.256C367.958 683.109 367.558 684.272 367.558 685.725V688.795H376.574V685.725H376.556ZM376.611 663.762H379.319V675.007H364.776V664.035H367.485V671.665H370.648V664.925H373.266V671.665H376.629V663.762H376.611Z" fill="black"/>
</svg>
